<?xml version="1.0" encoding="UTF-8" standalone="no"?>
<!-- Created with Inkscape (http://www.inkscape.org/) -->
<svg
   xmlns:dc="http://purl.org/dc/elements/1.1/"
   xmlns:cc="http://creativecommons.org/ns#"
   xmlns:rdf="http://www.w3.org/1999/02/22-rdf-syntax-ns#"
   xmlns:svg="http://www.w3.org/2000/svg"
   xmlns="http://www.w3.org/2000/svg"
   xmlns:sodipodi="http://sodipodi.sourceforge.net/DTD/sodipodi-0.dtd"
   xmlns:inkscape="http://www.inkscape.org/namespaces/inkscape"
   id="svg2403"
   sodipodi:version="0.32"
   inkscape:version="0.46"
   width="511.59"
   height="117.78"
   xml:space="preserve"
   sodipodi:docname="Kieler Nachrichten Logo.svg"
   version="1.0"
   inkscape:output_extension="org.inkscape.output.svg.inkscape"><metadata
     id="metadata2408"><rdf:RDF><cc:Work
         rdf:about=""><dc:format>image/svg+xml</dc:format><dc:type
           rdf:resource="http://purl.org/dc/dcmitype/StillImage" /></cc:Work></rdf:RDF></metadata><defs
     id="defs2406"><inkscape:perspective
       sodipodi:type="inkscape:persp3d"
       inkscape:vp_x="0 : 526.18109 : 1"
       inkscape:vp_y="0 : 1000 : 0"
       inkscape:vp_z="744.09448 : 526.18109 : 1"
       inkscape:persp3d-origin="372.04724 : 350.78739 : 1"
       id="perspective2410" /><clipPath
       clipPathUnits="userSpaceOnUse"
       id="clipPath2420"><path
         d="M 872.359,1233.62 L 5067.64,1233.62 L 5067.64,7186.38 L 872.359,7186.38 L 872.359,1233.62 z"
         id="path2422" /></clipPath><clipPath
       clipPathUnits="userSpaceOnUse"
       id="clipPath2434"><path
         d="M 4711,1488 L 4711,2694 L 4977,2694 L 4977,1488 L 4711,1488 z"
         id="path2436" /></clipPath><clipPath
       clipPathUnits="userSpaceOnUse"
       id="clipPath2526"><path
         d="M 872.359,1233.62 L 5067.64,1233.62 L 5067.64,7186.38 L 872.359,7186.38 L 872.359,1233.62 z"
         id="path2528" /></clipPath></defs><sodipodi:namedview
     inkscape:window-height="974"
     inkscape:window-width="1280"
     inkscape:pageshadow="2"
     inkscape:pageopacity="0.0"
     guidetolerance="10.0"
     gridtolerance="10.0"
     objecttolerance="10.0"
     borderopacity="1.0"
     bordercolor="#666666"
     pagecolor="#ffffff"
     id="base"
     showgrid="false"
     inkscape:zoom="1"
     inkscape:cx="526.25"
     inkscape:cy="291.875"
     inkscape:window-x="-8"
     inkscape:window-y="-8"
     inkscape:current-layer="g2414" /><g
     id="g2412"
     inkscape:groupmode="layer"
     inkscape:label="KN_EM"
     transform="matrix(0,1.25,1.25,0,-186.09251,-511.30739)"><g
       id="g2414"
       transform="scale(0.1,0.1)"><g
         id="g2430"
         transform="matrix(3.3440548,0,0,3.3440548,-11633.657,-3457.6881)"><g
           id="g2432"
           clip-path="url(#clipPath2434)"><path
             d="M 4713.19,1488.74 L 4713.32,1520.91 L 4723.79,1521.03 L 4723.79,1512.95 L 4753.95,1512.95 L 4723.79,1534.88 L 4723.79,1527.65 L 4713.19,1527.53 L 4713.19,1558.61 L 4723.79,1558.61 L 4723.84,1550.79 L 4756.97,1527.53 L 4789.99,1550.18 L 4795.98,1554.4 L 4797.28,1555.12 L 4797.94,1555.72 L 4798.39,1556.21 L 4798.71,1557.53 L 4798.79,1559.46 L 4798.68,1562.95 L 4810.43,1562.95 L 4810.43,1526.09 L 4798.79,1526.21 L 4798.77,1535.61 L 4766.64,1512.95 L 4798.68,1512.95 L 4798.68,1520.3 L 4810.43,1520.3 L 4810.43,1488.74 L 4798.87,1488.86 L 4798.79,1495.12 L 4723.79,1495.25 L 4723.79,1488.74 L 4713.19,1488.74"
             style="fill:#231f20;fill-opacity:1;fill-rule:evenodd;stroke:none"
             id="path2438" /><path
             d="M 4713.19,1664.03 L 4713.19,1685.59 L 4713.16,1687.04 L 4713.21,1687.88 L 4713.3,1688.12 L 4713.43,1688.25 L 4713.43,1688.37 L 4798.68,1688.37 L 4798.68,1695.84 L 4810.43,1695.84 L 4810.43,1663.91 L 4799.82,1663.91 L 4798.92,1664.15 L 4798.68,1664.15 L 4798.66,1669.81 L 4780.24,1669.69 L 4723.79,1669.69 L 4723.79,1664.03 L 4717.59,1664.15 L 4713.19,1664.03"
             style="fill:#231f20;fill-opacity:1;fill-rule:evenodd;stroke:none"
             id="path2440" /><path
             d="M 4713.19,1844.5 L 4713.19,1860.64 L 4713.24,1866.79 L 4716.58,1868.6 L 4727.9,1874.98 L 4774.94,1901.73 L 4774.94,1901.97 L 4723.79,1901.97 L 4723.79,1894.98 L 4714.12,1894.98 L 4713.43,1895.1 L 4713.19,1895.22 L 4713.19,1922.09 L 4713.24,1922.93 L 4713.32,1923.29 L 4713.43,1923.41 L 4713.43,1923.54 L 4723.79,1923.54 L 4723.79,1915.95 L 4810.32,1915.95 L 4810.43,1901.97 L 4807.88,1900.52 L 4800.59,1896.3 L 4764.63,1875.34 L 4753.29,1868.72 L 4751.86,1867.75 L 4751.06,1867.27 L 4750.29,1867.15 L 4750.29,1866.67 L 4798.68,1866.67 L 4798.68,1874.02 L 4810.43,1874.02 L 4810.43,1845.11 L 4798.87,1845.23 L 4798.66,1852.7 L 4780.93,1852.82 L 4724.29,1852.82 L 4724.11,1852.7 L 4724.03,1852.57 L 4723.79,1852.57 L 4723.79,1844.26 L 4713.19,1844.5"
             style="fill:#231f20;fill-opacity:1;fill-rule:evenodd;stroke:none"
             id="path2442" /><path
             d="M 4738.31,1566.45 L 4738.31,1591.75 L 4798.68,1591.75 L 4798.68,1598.25 L 4810.43,1598.25 L 4810.43,1565.72 L 4798.68,1565.72 L 4798.77,1573.19 L 4750.77,1573.07 L 4750.77,1566.81 L 4750.71,1566.69 L 4750.53,1566.69 L 4750.53,1566.45 L 4738.31,1566.45"
             style="fill:#231f20;fill-opacity:1;fill-rule:evenodd;stroke:none"
             id="path2444" /><path
             d="M 4738.31,2173.76 L 4738.31,2199.18 L 4798.68,2199.18 L 4798.68,2205.57 L 4810.43,2205.57 L 4810.43,2173.04 L 4798.71,2173.04 L 4798.77,2180.51 L 4750.77,2180.51 L 4750.77,2174.48 L 4750.53,2174 L 4750.53,2173.76 L 4738.31,2173.76"
             style="fill:#231f20;fill-opacity:1;fill-rule:evenodd;stroke:none"
             id="path2446" /><path
             d="M 4833.48,2559.28 L 4834.33,2566.63 L 4835.47,2574.7 L 4839.07,2600.36 L 4840.61,2610.72 L 4839.1,2646.14 L 4851.11,2693.49 L 4851.11,2693.49 L 4851.19,2692.89 L 4852.19,2686.14 L 4853.78,2674.33 L 4856.11,2656.86 L 4857.39,2646.87 L 4856.11,2639.27 L 4853.15,2622.17 L 4852.35,2607.23 L 4851.24,2588.55 L 4852.41,2571.93 L 4856.54,2518.2 L 4859.45,2480.61 L 4859.51,2439.89 L 4855.61,2387 L 4856.01,2381.22 L 4857.28,2365.8 L 4857.86,2356.64 L 4852.25,2287.49 L 4858.74,2228.82 L 4859.27,2212.67 L 4858.93,2180.51 L 4858.82,2177.01 L 4849.78,2202.31 L 4847.39,2209.3 L 4847.34,2211.59 L 4847.5,2213.88 L 4847.71,2219.66 L 4848.22,2236.29 L 4846.5,2241.71 L 4842.39,2255.8 L 4836.88,2274.72 L 4834.84,2281.95 L 4835.71,2286.04 L 4837.75,2295.56 L 4843.71,2323.63 L 4846.73,2337.73 L 4840.61,2387.36 L 4842.34,2399.53 L 4845.73,2422.78 L 4848.22,2439.77 L 4846.36,2510.85 L 4845.57,2514.22 L 4843.34,2525.19 L 4840.08,2541.09 L 4836.8,2550.36 L 4833.48,2559.28"
             style="fill:#00adef;fill-opacity:1;fill-rule:evenodd;stroke:none"
             id="path2448" /><path
             d="M 4859.85,2314.23 L 4860.25,2340.02 L 4864.17,2372.06 L 4865.89,2386.16 L 4865.97,2393.51 L 4865.73,2402.54 L 4865.45,2404.95 L 4865.5,2406.64 L 4861.71,2430.25 L 4862.61,2436.88 L 4864.94,2452.54 L 4865.05,2458.08 L 4865.26,2462.42 L 4865.73,2494.71 L 4865.73,2507.6 L 4866.43,2555.55 L 4861.23,2607.35 L 4864.46,2622.05 L 4871.54,2653.97 L 4874.72,2668.31 L 4879.94,2629.64 L 4878.91,2621.8 L 4876.52,2606.02 L 4875.17,2595.06 L 4875.41,2590.6 L 4875.62,2561.33 L 4875.67,2537.11 L 4879.99,2468.44 L 4879.57,2461.45 L 4877.95,2438.45 L 4873.82,2380.86 L 4874.24,2369.77 L 4874.72,2352.18 L 4875.17,2338.81 L 4873.08,2313.03 L 4872.44,2304.48 L 4875.25,2279.9 L 4878,2267.13 L 4877.9,2264.12 L 4877.5,2261.11 L 4875.33,2239.9 L 4879.2,2220.62 L 4880.29,2214.12 L 4879.94,2213.04 L 4879.36,2212.07 L 4878.06,2210.14 L 4871.17,2199.18 L 4869.95,2197.25 L 4868.02,2271.34 L 4859.85,2314.23"
             style="fill:#ed1c24;fill-opacity:1;fill-rule:evenodd;stroke:none"
             id="path2450" /><path
             d="M 4962.57,1850.89 C 4964.61,1852.45 4966.52,1855.11 4966.52,1858.6 C 4966.52,1862.21 4964.72,1864.38 4961.94,1864.38 C 4954.91,1864.38 4959.39,1847.03 4945.53,1847.03 C 4938.93,1847.03 4934.43,1851.25 4934.43,1859.2 C 4934.43,1865.82 4936.79,1869.2 4939.46,1871.61 L 4944.26,1866.43 C 4942.35,1864.98 4941.16,1862.57 4941.16,1859.56 C 4941.16,1856.67 4942.51,1854.74 4945.05,1854.74 C 4948.42,1854.74 4948.47,1858 4950.33,1863.05 C 4952.5,1869.2 4955.98,1872.33 4961.67,1872.33 C 4968.46,1872.33 4973.28,1867.39 4973.28,1859.44 C 4973.28,1852.7 4970.92,1848.6 4968.25,1845.83 L 4962.57,1850.89"
             style="fill:#231f20;fill-opacity:1;fill-rule:nonzero;stroke:none"
             id="path2452" /><path
             d="M 4957.94,1885.1 C 4951.6,1885.1 4948.82,1886.79 4948.82,1890.04 C 4948.82,1893.29 4951.6,1894.98 4957.94,1894.98 C 4964.3,1894.98 4967.08,1893.29 4967.08,1890.04 C 4967.08,1886.79 4964.3,1885.1 4957.94,1885.1 z M 4957.94,1877.03 C 4968.03,1877.03 4973.2,1882.21 4973.2,1890.04 C 4973.2,1897.87 4968.03,1903.05 4957.94,1903.05 C 4947.86,1903.05 4942.7,1897.87 4942.7,1890.04 C 4942.7,1882.21 4947.86,1877.03 4957.94,1877.03"
             style="fill:#231f20;fill-opacity:1;fill-rule:nonzero;stroke:none"
             id="path2454" /><path
             d="M 4972.57,1934.74 L 4943.33,1923.41 L 4943.33,1931.48 L 4963.79,1938.11 L 4963.79,1938.23 L 4943.33,1944.86 L 4943.33,1952.93 L 4972.57,1941.48 L 4972.57,1934.74"
             style="fill:#231f20;fill-opacity:1;fill-rule:nonzero;stroke:none"
             id="path2456" /><path
             d="M 4945.24,1958.95 L 4945.24,1966.91 L 4972.57,1966.91 L 4972.57,1958.95 L 4945.24,1958.95 z M 4933.69,1962.93 C 4933.69,1966.3 4935.41,1967.75 4937.16,1967.75 C 4938.91,1967.75 4940.63,1966.3 4940.63,1962.93 C 4940.63,1959.43 4938.91,1957.99 4937.16,1957.99 C 4935.41,1957.99 4933.69,1959.43 4933.69,1962.93"
             style="fill:#231f20;fill-opacity:1;fill-rule:nonzero;stroke:none"
             id="path2458" /><path
             d="M 4955.68,1980.52 C 4950.44,1980.64 4947.86,1982.69 4947.86,1986.18 C 4947.86,1989.68 4950.44,1991.72 4955.68,1991.84 L 4955.68,1980.52 z M 4959.98,1999.07 L 4958.15,1999.07 C 4949.03,1999.07 4942.7,1994.01 4942.7,1986.3 C 4942.7,1978.47 4947.86,1973.29 4957.99,1973.29 C 4968.03,1973.29 4973.2,1978.47 4973.2,1986.3 C 4973.2,1991.24 4971.27,1995.82 4966.97,1998.59 L 4964.54,1992.08 C 4966.66,1990.76 4967.4,1989.43 4967.4,1986.9 C 4967.4,1982.93 4964.85,1980.88 4959.98,1980.52 L 4959.98,1999.07"
             style="fill:#231f20;fill-opacity:1;fill-rule:nonzero;stroke:none"
             id="path2460" /><path
             d="M 4934.4,2005.58 L 4972.5641,2005.58 L 4972.5641,2013.6503 L 4934.4,2013.6503 L 4934.4,2005.58 z"
             style="fill:#231f20;fill-opacity:1;fill-rule:nonzero;stroke:none"
             id="path2462" /><path
             d="M 4935.12,2039.19 L 4935.12,2069.67 L 4965.65,2050.75 L 4965.65,2068.34 L 4972.57,2068.34 L 4972.57,2036.66 L 4942.06,2055.45 L 4942.06,2039.19 L 4935.12,2039.19"
             style="fill:#231f20;fill-opacity:1;fill-rule:nonzero;stroke:none"
             id="path2464" /><path
             d="M 4955.68,2079.79 C 4950.44,2079.91 4947.86,2081.96 4947.86,2085.45 C 4947.86,2088.95 4950.44,2090.99 4955.68,2091.11 L 4955.68,2079.79 z M 4959.98,2098.34 L 4958.15,2098.34 C 4949.03,2098.34 4942.7,2093.16 4942.7,2085.45 C 4942.7,2077.62 4947.86,2072.56 4957.99,2072.56 C 4968.03,2072.56 4973.2,2077.62 4973.2,2085.45 C 4973.2,2090.39 4971.27,2095.09 4966.97,2097.74 L 4964.54,2091.23 C 4966.66,2089.91 4967.4,2088.59 4967.4,2086.05 C 4967.4,2082.08 4964.85,2080.03 4959.98,2079.79 L 4959.98,2098.34"
             style="fill:#231f20;fill-opacity:1;fill-rule:nonzero;stroke:none"
             id="path2466" /><path
             d="M 4945.24,2104.73 L 4945.24,2112.8 L 4972.57,2112.8 L 4972.57,2104.73 L 4945.24,2104.73 z M 4933.69,2108.7 C 4933.69,2112.08 4935.41,2113.52 4937.16,2113.52 C 4938.91,2113.52 4940.63,2112.08 4940.63,2108.7 C 4940.63,2105.33 4938.91,2103.88 4937.16,2103.88 C 4935.41,2103.88 4933.69,2105.33 4933.69,2108.7"
             style="fill:#231f20;fill-opacity:1;fill-rule:nonzero;stroke:none"
             id="path2468" /><path
             d="M 4949.14,2119.18 L 4943.33,2119.18 L 4943.33,2123.16 L 4935.12,2123.16 L 4935.12,2131.11 L 4943.33,2131.11 L 4943.33,2135.93 L 4949.14,2135.93 L 4949.14,2131.11 L 4972.57,2131.11 L 4972.57,2123.16 L 4949.14,2123.16 L 4949.14,2119.18"
             style="fill:#231f20;fill-opacity:1;fill-rule:nonzero;stroke:none"
             id="path2470" /><path
             d="M 4943.33,2149.43 L 4961.94,2149.43 C 4965.62,2149.43 4967.08,2150.87 4967.08,2153.88 C 4967.08,2156.77 4965.62,2158.22 4961.94,2158.22 L 4943.33,2158.22 L 4943.33,2166.29 L 4962.36,2166.29 C 4969.49,2166.29 4973.2,2162.55 4973.2,2153.88 C 4973.2,2145.09 4969.49,2141.35 4962.36,2141.35 L 4943.33,2141.35 L 4943.33,2149.43"
             style="fill:#231f20;fill-opacity:1;fill-rule:nonzero;stroke:none"
             id="path2472" /><path
             d="M 4943.33,2173.52 L 4943.33,2180.87 L 4948.18,2180.87 L 4948.18,2180.87 C 4944.9,2183.04 4942.7,2186.17 4942.7,2189.9 C 4942.7,2195.69 4946.04,2198.58 4952.98,2198.58 L 4972.57,2198.58 L 4972.57,2190.62 L 4954.44,2190.62 C 4950.25,2190.62 4949.14,2189.3 4949.14,2186.77 C 4949.14,2185.21 4950.09,2183.52 4951.5,2182.68 C 4952.98,2181.83 4954.44,2181.59 4956.8,2181.59 L 4972.57,2181.59 L 4972.57,2173.52 L 4943.33,2173.52"
             style="fill:#231f20;fill-opacity:1;fill-rule:nonzero;stroke:none"
             id="path2474" /><path
             d="M 4954.49,2212.55 C 4951.5,2212.55 4949.14,2214.6 4949.14,2217.73 C 4949.14,2220.98 4951.5,2223.04 4954.49,2223.04 C 4957.48,2223.04 4959.82,2220.98 4959.82,2217.73 C 4959.82,2214.6 4957.48,2212.55 4954.49,2212.55 z M 4943.33,2223.76 L 4948.29,2223.76 L 4948.29,2223.64 C 4944.42,2221.95 4942.7,2219.18 4942.7,2214.72 C 4942.7,2209.06 4947.1,2204.48 4954.49,2204.48 C 4961.86,2204.48 4966.26,2209.06 4966.26,2214.72 C 4966.2,2217.13 4965.04,2220.26 4961.73,2222.67 L 4965.68,2222.67 C 4970.39,2222.67 4972.41,2220.87 4972.41,2217.01 C 4972.41,2215.93 4972.2,2215.2 4971.88,2214.72 C 4971.56,2214.12 4971.11,2213.88 4970.58,2213.76 L 4970.58,2204.96 C 4974.77,2206.53 4976.7,2210.27 4976.7,2217.01 C 4976.7,2221.83 4975.75,2225.45 4973.12,2227.97 C 4970.87,2230.26 4967.13,2230.75 4962.41,2230.75 L 4943.33,2230.75 L 4943.33,2223.76"
             style="fill:#231f20;fill-opacity:1;fill-rule:nonzero;stroke:none"
             id="path2476" /><path
             d="M 4943.33,2255.93 L 4943.33,2262.91 L 4948.82,2262.91 L 4948.82,2263.03 C 4944.79,2265.68 4942.7,2268.93 4942.7,2272.91 C 4942.7,2277.13 4944.74,2280.02 4948.34,2281.46 C 4944.68,2284.23 4942.7,2287.25 4942.7,2291.34 C 4942.7,2297.25 4946.57,2300.62 4952.88,2300.62 L 4972.57,2300.62 L 4972.57,2292.55 L 4954.44,2292.55 C 4950.38,2292.55 4949.14,2291.1 4949.14,2288.33 C 4949.14,2286.4 4950.09,2284.6 4951.5,2283.63 C 4952.98,2282.55 4954.44,2282.31 4956.8,2282.31 L 4972.57,2282.31 L 4972.57,2274.23 L 4954.44,2274.23 C 4950.38,2274.23 4949.14,2272.79 4949.14,2270.02 C 4949.14,2268.09 4950.09,2266.29 4951.5,2265.32 C 4952.98,2264.24 4954.44,2264 4956.8,2264 L 4972.57,2264 L 4972.57,2255.93 L 4943.33,2255.93"
             style="fill:#231f20;fill-opacity:1;fill-rule:nonzero;stroke:none"
             id="path2478" /><path
             d="M 4943.33,2316.52 L 4961.94,2316.52 C 4965.62,2316.52 4967.08,2317.97 4967.08,2320.86 C 4967.08,2323.87 4965.62,2325.32 4961.94,2325.32 L 4943.33,2325.32 L 4943.33,2333.39 L 4962.36,2333.39 C 4969.49,2333.39 4973.2,2329.66 4973.2,2320.86 C 4973.2,2312.19 4969.49,2308.45 4962.36,2308.45 L 4943.33,2308.45 L 4943.33,2316.52"
             style="fill:#231f20;fill-opacity:1;fill-rule:nonzero;stroke:none"
             id="path2480" /><path
             d="M 4964.96,2344.59 C 4966.52,2346.04 4967.88,2347.97 4967.88,2350.25 C 4967.88,2352.91 4966.63,2354.47 4964.7,2354.47 C 4959.45,2354.47 4962.5,2339.29 4951.36,2339.29 C 4946.54,2339.29 4942.7,2343.27 4942.7,2349.89 C 4942.7,2353.99 4944.61,2358.21 4948.23,2360.5 L 4950.7,2354.47 C 4949.75,2353.63 4948.02,2352.06 4948.02,2349.65 C 4948.02,2347.36 4949.48,2346.28 4950.94,2346.28 C 4956.4,2346.28 4953.06,2361.34 4963.85,2361.34 C 4969.52,2361.34 4973.2,2357.61 4973.2,2350.02 C 4973.2,2344.59 4971.66,2340.62 4967.71,2338.45 L 4964.96,2344.59"
             style="fill:#231f20;fill-opacity:1;fill-rule:nonzero;stroke:none"
             id="path2482" /><path
             d="M 4964.96,2370.86 C 4966.52,2372.3 4967.88,2374.23 4967.88,2376.64 C 4967.88,2379.17 4966.63,2380.73 4964.7,2380.73 C 4959.45,2380.73 4962.5,2365.55 4951.36,2365.55 C 4946.54,2365.55 4942.7,2369.53 4942.7,2376.16 C 4942.7,2380.25 4944.61,2384.47 4948.23,2386.76 L 4950.7,2380.73 C 4949.75,2379.89 4948.02,2378.33 4948.02,2375.92 C 4948.02,2373.63 4949.48,2372.54 4950.94,2372.54 C 4956.4,2372.54 4953.06,2387.72 4963.85,2387.72 C 4969.52,2387.72 4973.2,2383.87 4973.2,2376.28 C 4973.2,2370.98 4971.66,2366.88 4967.71,2364.71 L 4964.96,2370.86"
             style="fill:#231f20;fill-opacity:1;fill-rule:nonzero;stroke:none"
             id="path2484" /><path
             d="M 4964.96,2414.47 C 4966.52,2415.91 4967.88,2417.84 4967.88,2420.25 C 4967.88,2422.78 4966.63,2424.35 4964.7,2424.35 C 4959.45,2424.35 4962.5,2409.17 4951.36,2409.17 C 4946.54,2409.17 4942.7,2413.14 4942.7,2419.77 C 4942.7,2423.99 4944.61,2428.08 4948.23,2430.49 L 4950.7,2424.35 C 4949.75,2423.5 4948.02,2421.94 4948.02,2419.53 C 4948.02,2417.24 4949.48,2416.16 4950.94,2416.16 C 4956.4,2416.16 4953.06,2431.34 4963.85,2431.34 C 4969.52,2431.34 4973.2,2427.48 4973.2,2419.89 C 4973.2,2414.59 4971.66,2410.61 4967.71,2408.32 L 4964.96,2414.47"
             style="fill:#231f20;fill-opacity:1;fill-rule:nonzero;stroke:none"
             id="path2486" /><path
             d="M 4955.68,2442.18 C 4950.44,2442.3 4947.86,2444.35 4947.86,2447.84 C 4947.86,2451.34 4950.44,2453.38 4955.68,2453.5 L 4955.68,2442.18 z M 4959.98,2460.73 L 4958.15,2460.73 C 4949.03,2460.73 4942.7,2455.67 4942.7,2447.96 C 4942.7,2440.13 4947.86,2434.95 4957.99,2434.95 C 4968.03,2434.95 4973.2,2440.13 4973.2,2447.96 C 4973.2,2452.9 4971.27,2457.48 4966.97,2460.25 L 4964.54,2453.74 C 4966.66,2452.42 4967.4,2451.09 4967.4,2448.56 C 4967.4,2444.59 4964.85,2442.54 4959.98,2442.18 L 4959.98,2460.73"
             style="fill:#231f20;fill-opacity:1;fill-rule:nonzero;stroke:none"
             id="path2488" /><path
             d="M 4945.24,2467.24 L 4945.24,2475.19 L 4972.57,2475.19 L 4972.57,2467.24 L 4945.24,2467.24 z M 4933.69,2471.21 C 4933.69,2474.59 4935.41,2476.03 4937.16,2476.03 C 4938.91,2476.03 4940.63,2474.59 4940.63,2471.21 C 4940.63,2467.72 4938.91,2466.27 4937.16,2466.27 C 4935.41,2466.27 4933.69,2467.72 4933.69,2471.21"
             style="fill:#231f20;fill-opacity:1;fill-rule:nonzero;stroke:none"
             id="path2490" /><path
             d="M 4943.33,2483.38 L 4943.33,2490.73 L 4948.18,2490.73 L 4948.18,2490.85 C 4944.9,2492.9 4942.7,2496.03 4942.7,2499.77 C 4942.7,2505.55 4946.04,2508.44 4952.98,2508.44 L 4972.57,2508.44 L 4972.57,2500.49 L 4954.44,2500.49 C 4950.25,2500.49 4949.14,2499.29 4949.14,2496.75 C 4949.14,2495.07 4950.09,2493.38 4951.5,2492.54 C 4952.98,2491.7 4954.44,2491.45 4956.8,2491.45 L 4972.57,2491.45 L 4972.57,2483.38 L 4943.33,2483.38"
             style="fill:#231f20;fill-opacity:1;fill-rule:nonzero;stroke:none"
             id="path2492" /><path
             d="M 4737.25,1631.02 C 4737.25,1648.97 4743.54,1660.18 4767.84,1660.18 C 4782.81,1660.18 4780.11,1660.18 4780.11,1660.18 L 4780.11,1620.66 C 4780.11,1620.66 4783.47,1620.54 4788.88,1621.02 C 4794.29,1621.5 4800.04,1623.43 4800.04,1631.5 C 4800.04,1641.38 4788.59,1641.86 4788.59,1641.86 L 4788.59,1658.61 C 4788.59,1658.61 4793.97,1657.89 4797.81,1657.16 C 4801.63,1656.32 4812.31,1650.42 4812.31,1631.62 C 4812.31,1606.44 4797.15,1603.31 4783.63,1602.35 C 4770.09,1601.38 4770.41,1601.98 4761.64,1602.83 C 4752.86,1603.67 4737.25,1607.65 4737.25,1631.02 z M 4759.41,1641.98 C 4754.61,1641.74 4749.68,1638.85 4749.68,1632.11 C 4749.68,1625.48 4753.98,1621.74 4759.41,1621.5 C 4764.82,1621.14 4766.88,1621.14 4766.88,1621.14 L 4766.88,1642.34 C 4766.88,1642.34 4764.18,1642.34 4759.41,1641.98"
             style="fill:#231f20;fill-opacity:1;fill-rule:evenodd;stroke:none"
             id="path2494" /><path
             d="M 4737.25,1728.48 C 4737.25,1746.43 4743.54,1757.64 4767.84,1757.64 C 4782.81,1757.64 4780.11,1757.64 4780.11,1757.64 L 4780.11,1718.12 C 4780.11,1718.12 4783.47,1718 4788.88,1718.48 C 4794.29,1718.97 4800.04,1720.89 4800.04,1728.96 C 4800.04,1738.84 4788.59,1739.33 4788.59,1739.33 L 4788.59,1756.07 C 4788.59,1756.07 4793.97,1755.47 4797.81,1754.63 C 4801.63,1753.91 4812.31,1748 4812.31,1729.21 C 4812.31,1704.03 4797.15,1700.77 4783.63,1699.81 C 4770.09,1698.85 4770.41,1699.57 4761.64,1700.29 C 4752.86,1701.14 4737.25,1705.11 4737.25,1728.48 z M 4759.41,1739.57 C 4754.61,1739.21 4749.68,1736.32 4749.68,1729.69 C 4749.68,1722.94 4753.98,1719.33 4759.41,1718.97 C 4764.82,1718.61 4766.88,1718.61 4766.88,1718.61 L 4766.88,1739.81 C 4766.88,1739.81 4764.18,1739.81 4759.41,1739.57"
             style="fill:#231f20;fill-opacity:1;fill-rule:evenodd;stroke:none"
             id="path2496" /><path
             d="M 4737.25,2409.41 C 4737.25,2427.24 4743.54,2438.56 4767.84,2438.56 C 4782.81,2438.56 4780.11,2438.56 4780.11,2438.56 L 4780.11,2399.05 C 4780.11,2399.05 4783.47,2398.81 4788.88,2399.29 C 4794.29,2399.77 4800.04,2401.7 4800.04,2409.89 C 4800.04,2419.77 4788.59,2420.25 4788.59,2420.25 L 4788.59,2436.88 C 4788.59,2436.88 4793.97,2436.27 4797.81,2435.55 C 4801.63,2434.71 4812.31,2428.8 4812.31,2410.01 C 4812.31,2384.83 4797.15,2381.7 4783.63,2380.73 C 4770.09,2379.77 4770.41,2380.38 4761.64,2381.22 C 4752.86,2381.94 4737.25,2385.92 4737.25,2409.41 z M 4759.41,2420.37 C 4754.61,2420.01 4749.68,2417.24 4749.68,2410.49 C 4749.68,2403.75 4753.98,2400.13 4759.41,2399.77 C 4764.82,2399.53 4766.88,2399.53 4766.88,2399.53 L 4766.88,2420.73 C 4766.88,2420.73 4764.18,2420.73 4759.41,2420.37"
             style="fill:#231f20;fill-opacity:1;fill-rule:evenodd;stroke:none"
             id="path2498" /><path
             d="M 4738.79,2443.62 L 4738.79,2468.2 L 4742.53,2468.2 C 4742.53,2468.2 4737.89,2473.02 4737.89,2483.5 C 4737.89,2497 4740.75,2507.71 4764.5,2507.71 C 4785.7,2507.71 4798.61,2507.71 4798.61,2507.71 L 4798.61,2514.82 L 4810.37,2514.82 L 4810.37,2481.82 L 4798.68,2481.82 L 4798.68,2489.29 C 4798.68,2489.29 4775.34,2489.29 4765.93,2489.29 C 4756.55,2489.29 4751.75,2486.51 4751.75,2479.16 C 4751.75,2471.82 4756.39,2467.72 4765.29,2467.72 C 4774.22,2467.72 4798.68,2467.72 4798.68,2467.72 L 4798.68,2476.15 L 4810.48,2476.15 L 4810.48,2444.11 L 4798.84,2444.11 L 4798.84,2449.29 L 4748.97,2449.29 L 4748.97,2443.62 L 4738.79,2443.62"
             style="fill:#231f20;fill-opacity:1;fill-rule:evenodd;stroke:none"
             id="path2500" /><path
             d="M 4713.35,2269.78 L 4713.35,2294.72 L 4742.53,2294.72 C 4742.53,2294.72 4737.89,2299.54 4737.89,2310.02 C 4737.89,2323.51 4740.75,2333.99 4764.5,2333.99 C 4785.7,2333.99 4798.61,2333.99 4798.61,2333.99 L 4798.61,2340.14 L 4810.37,2340.14 L 4810.37,2308.81 L 4798.68,2308.81 L 4798.68,2316.16 C 4798.68,2316.16 4775.34,2316.16 4765.93,2316.16 C 4756.55,2316.16 4751.75,2313.39 4751.75,2306.04 C 4751.75,2298.69 4756.39,2294.6 4765.29,2294.6 C 4774.22,2294.6 4798.68,2294.6 4798.68,2294.6 L 4798.68,2302.43 L 4810.48,2302.43 L 4810.48,2270.14 L 4798.84,2270.14 L 4798.84,2275.8 L 4723.84,2275.8 L 4723.84,2269.78 L 4713.35,2269.78"
             style="fill:#231f20;fill-opacity:1;fill-rule:evenodd;stroke:none"
             id="path2502" /><path
             d="M 4713.35,2054.13 L 4713.35,2079.07 L 4742.53,2079.07 C 4742.53,2079.07 4737.89,2083.77 4737.89,2094.37 C 4737.89,2107.86 4740.75,2118.34 4764.5,2118.34 C 4785.7,2118.34 4798.61,2118.34 4798.61,2118.34 L 4798.61,2124.36 L 4810.37,2124.36 L 4810.37,2093.04 L 4798.68,2093.04 L 4798.68,2100.51 C 4798.68,2100.51 4775.34,2100.51 4765.93,2100.51 C 4756.55,2100.51 4751.75,2097.74 4751.75,2090.39 C 4751.75,2083.04 4756.39,2078.95 4765.29,2078.95 C 4774.22,2078.95 4798.68,2078.95 4798.68,2078.95 L 4798.68,2086.78 L 4810.48,2086.78 L 4810.48,2054.49 L 4798.84,2054.49 L 4798.84,2060.15 L 4723.84,2060.15 L 4723.84,2054.13 L 4713.35,2054.13"
             style="fill:#231f20;fill-opacity:1;fill-rule:evenodd;stroke:none"
             id="path2504" /><path
             d="M 4739.19,1761.86 L 4739.19,1787.76 L 4745.87,1787.76 C 4745.87,1787.76 4740.43,1790.77 4739.32,1800.05 C 4738.9,1803.54 4739.32,1806.07 4739.32,1806.07 L 4755.27,1806.07 C 4755.27,1806.07 4755.14,1803.06 4755.14,1798.6 C 4755.14,1792.09 4758.77,1787.76 4770.73,1787.76 C 4782.65,1787.76 4798.61,1787.76 4798.61,1787.76 L 4798.61,1794.14 L 4810.48,1794.14 L 4810.48,1761.61 L 4798.84,1761.61 L 4798.84,1769.09 L 4750.27,1769.09 L 4750.27,1761.86 L 4739.19,1761.86"
             style="fill:#231f20;fill-opacity:1;fill-rule:evenodd;stroke:none"
             id="path2506" /><path
             d="M 4739.19,2126.65 L 4739.19,2152.55 L 4745.87,2152.55 C 4745.87,2152.55 4740.43,2155.69 4739.32,2164.84 C 4738.9,2168.34 4739.32,2170.99 4739.32,2170.99 L 4755.27,2170.99 C 4755.27,2170.99 4755.14,2167.86 4755.14,2163.4 C 4755.14,2156.89 4758.77,2152.55 4770.73,2152.55 C 4782.65,2152.55 4798.61,2152.55 4798.61,2152.55 L 4798.61,2158.94 L 4810.48,2158.94 L 4810.48,2126.41 L 4798.84,2126.41 L 4798.84,2133.88 L 4750.27,2133.88 L 4750.27,2126.65 L 4739.19,2126.65"
             style="fill:#231f20;fill-opacity:1;fill-rule:evenodd;stroke:none"
             id="path2508" /><path
             d="M 4763.62,1929.68 L 4738.84,1929.68 L 4738.68,1938.35 L 4743.16,1940.04 C 4743.16,1940.04 4737.41,1945.7 4737.73,1957.51 C 4737.97,1965.82 4739.35,1975.22 4749.97,1979.43 C 4754.24,1981.12 4759.96,1981.24 4767.68,1981.24 C 4785.38,1981.24 4798.68,1981.24 4798.68,1981.24 L 4798.68,1988.83 L 4810.53,1988.83 L 4810.53,1966.06 L 4807.35,1964.5 C 4807.35,1964.5 4812.62,1957.99 4812.62,1944.74 C 4812.62,1931.48 4804.33,1923.65 4790.63,1923.65 C 4770.36,1923.65 4771.18,1937.99 4770.64,1948.47 C 4770.06,1960.16 4767.6,1964.25 4759.89,1964.25 C 4753.02,1964.25 4750.64,1960.16 4750.64,1954.13 C 4750.64,1948.11 4755.12,1946.18 4758.46,1945.46 C 4761.79,1944.86 4763.62,1944.5 4763.62,1944.5 L 4763.62,1929.68 z M 4780.74,1960.04 C 4781.38,1956.18 4781.54,1950.76 4783.79,1945.34 C 4786.02,1939.92 4795.72,1939.44 4798.45,1944.02 C 4801.15,1948.71 4801.47,1957.27 4796.04,1961.61 C 4790.63,1965.94 4779.31,1964.62 4779.31,1964.62 C 4779.31,1964.62 4780.11,1963.77 4780.74,1960.04"
             style="fill:#231f20;fill-opacity:1;fill-rule:evenodd;stroke:none"
             id="path2510" /><path
             d="M 4739.75,2049.67 L 4763.46,2049.67 L 4763.46,2033.29 C 4763.46,2033.29 4757.02,2034.13 4754.14,2030.39 C 4751.27,2026.78 4747.62,2011.72 4762.43,2011.72 C 4777.25,2011.72 4785.38,2011.96 4790.79,2011.96 C 4803.09,2011.96 4804.3,2031.72 4792.86,2033.29 C 4788.24,2033.89 4787.21,2034.13 4787.21,2034.13 L 4787.21,2050.75 C 4787.21,2050.75 4796.04,2051.72 4802.11,2047.62 C 4807.3,2044.01 4813.1,2038.95 4813.1,2021.84 C 4813.1,2010.52 4808.94,2004.49 4803.85,1999.31 C 4798.77,1994.25 4787.13,1993.77 4777.56,1993.77 C 4765.88,1993.77 4752.12,1993.77 4745.55,2000.28 C 4741.1,2004.73 4738.05,2011.96 4738.05,2021.12 C 4738.05,2035.82 4744.91,2039.07 4744.91,2039.07 L 4739.75,2039.19 L 4739.75,2049.67"
             style="fill:#231f20;fill-opacity:1;fill-rule:evenodd;stroke:none"
             id="path2512" /><path
             d="M 4739.75,2265.44 L 4763.46,2265.44 L 4763.46,2248.94 C 4763.46,2248.94 4757.02,2249.78 4754.14,2246.16 C 4751.27,2242.43 4747.62,2227.49 4762.43,2227.49 C 4777.25,2227.49 4785.38,2227.61 4790.79,2227.61 C 4803.09,2227.61 4804.3,2247.37 4792.86,2248.94 C 4788.24,2249.66 4787.21,2249.78 4787.21,2249.78 L 4787.21,2266.53 C 4787.21,2266.53 4796.04,2267.49 4802.11,2263.27 C 4807.3,2259.78 4813.1,2254.6 4813.1,2237.49 C 4813.1,2226.17 4808.94,2220.14 4803.85,2215.08 C 4798.77,2209.9 4787.13,2209.54 4777.56,2209.54 C 4765.88,2209.54 4752.12,2209.42 4745.55,2216.05 C 4741.1,2220.5 4738.05,2227.61 4738.05,2236.89 C 4738.05,2251.59 4744.91,2254.72 4744.91,2254.72 L 4739.75,2254.84 L 4739.75,2265.44"
             style="fill:#231f20;fill-opacity:1;fill-rule:evenodd;stroke:none"
             id="path2514" /><path
             d="M 4729.7,2189.54 C 4729.7,2194.6 4725.67,2198.58 4720.69,2198.58 C 4715.71,2198.58 4711.68,2194.6 4711.68,2189.54 C 4711.68,2184.6 4715.71,2180.51 4720.69,2180.51 C 4725.67,2180.51 4729.7,2184.6 4729.7,2189.54"
             style="fill:#231f20;fill-opacity:1;fill-rule:evenodd;stroke:none"
             id="path2516" /><path
             d="M 4729.7,1582.59 C 4729.7,1587.53 4725.67,1591.62 4720.69,1591.62 C 4715.71,1591.62 4711.68,1587.53 4711.68,1582.59 C 4711.68,1577.65 4715.71,1573.55 4720.69,1573.55 C 4725.67,1573.55 4729.7,1577.65 4729.7,1582.59"
             style="fill:#231f20;fill-opacity:1;fill-rule:evenodd;stroke:none"
             id="path2518" /><path
             d="M 4721.09,2355.07 L 4721.09,2367.84 L 4740.22,2367.84 L 4740.22,2376.16 L 4750.56,2376.16 L 4750.56,2367.84 L 4798.68,2367.84 L 4798.68,2374.95 L 4810.48,2374.95 L 4810.48,2343.99 L 4798.68,2343.99 L 4798.68,2349.41 L 4750.59,2349.41 L 4750.59,2341.82 L 4740.59,2341.82 C 4740.59,2341.82 4741.73,2347.48 4735.5,2351.7 C 4729.3,2356.04 4721.09,2355.07 4721.09,2355.07"
             style="fill:#231f20;fill-opacity:1;fill-rule:evenodd;stroke:none"
             id="path2520" /></g></g></g></g></svg>