<?xml version="1.0" encoding="UTF-8" standalone="no"?>
<!-- Created with Inkscape (http://www.inkscape.org/) -->

<svg
   xmlns:dc="http://purl.org/dc/elements/1.1/"
   xmlns:cc="http://creativecommons.org/ns#"
   xmlns:rdf="http://www.w3.org/1999/02/22-rdf-syntax-ns#"
   xmlns:svg="http://www.w3.org/2000/svg"
   xmlns="http://www.w3.org/2000/svg"
   xmlns:sodipodi="http://sodipodi.sourceforge.net/DTD/sodipodi-0.dtd"
   xmlns:inkscape="http://www.inkscape.org/namespaces/inkscape"
   width="38.66"
   height="19.23"
   id="svg3722"
   version="1.1"
   inkscape:version="0.48.1 "
   sodipodi:docname="Neues Dokument 3">
  <defs
     id="defs3724">
    <clipPath
       clipPathUnits="userSpaceOnUse"
       id="clipPath388">
      <path
         inkscape:connector-curvature="0"
         d="m 191.56,380.587 -98.437,0 0,-14.377 98.437,0 0,14.377 z"
         id="path390" />
    </clipPath>
    <clipPath
       clipPathUnits="userSpaceOnUse"
       id="clipPath394">
      <path
         inkscape:connector-curvature="0"
         d="m 93.124,380.585 31.04,0 0,-18.625 -31.04,0 0,18.625 z"
         clip-rule="evenodd"
         id="path396" />
    </clipPath>
    <clipPath
       clipPathUnits="userSpaceOnUse"
       id="clipPath400">
      <path
         inkscape:connector-curvature="0"
         d="M 0,842 595,842 595,0.11 0,0.11 0,842 z"
         id="path402" />
    </clipPath>
    <clipPath
       clipPathUnits="userSpaceOnUse"
       id="clipPath406">
      <path
         inkscape:connector-curvature="0"
         d="m 0,841.98 595.2,0 L 595.2,0 0,0 0,841.98 z"
         id="path408" />
    </clipPath>
  </defs>
  <sodipodi:namedview
     id="base"
     pagecolor="#ffffff"
     bordercolor="#666666"
     borderopacity="1.0"
     inkscape:pageopacity="0.0"
     inkscape:pageshadow="2"
     inkscape:zoom="24.385421"
     inkscape:cx="19.329995"
     inkscape:cy="9.6150362"
     inkscape:document-units="px"
     inkscape:current-layer="layer1"
     showgrid="false"
     fit-margin-top="0"
     fit-margin-left="0"
     fit-margin-right="0"
     fit-margin-bottom="0"
     inkscape:window-width="1024"
     inkscape:window-height="708"
     inkscape:window-x="-4"
     inkscape:window-y="-4"
     inkscape:window-maximized="1" />
  <metadata
     id="metadata3727">
    <rdf:RDF>
      <cc:Work
         rdf:about="">
        <dc:format>image/svg+xml</dc:format>
        <dc:type
           rdf:resource="http://purl.org/dc/dcmitype/StillImage" />
        <dc:title></dc:title>
      </cc:Work>
    </rdf:RDF>
  </metadata>
  <g
     inkscape:label="Ebene 1"
     inkscape:groupmode="layer"
     id="layer1"
     transform="translate(-296.57013,-545.06042)">
    <g
       id="g384"
       transform="matrix(1.25,0,0,-1.25,181.1645,1021.794)">
      <g
         id="g386"
         clip-path="url(#clipPath388)">
        <g
           id="g392"
           clip-path="url(#clipPath394)">
          <g
             id="g398"
             clip-path="url(#clipPath400)">
            <g
               id="g404"
               clip-path="url(#clipPath406)">
              <g
                 id="g410"
                 transform="translate(109.597,374.146)">
                <path
                   d="M 0,0 C 0,1.285 1.042,2.328 2.327,2.328 3.612,2.328 4.653,1.285 4.653,0 4.653,-1.285 3.612,-2.328 2.327,-2.328 1.042,-2.328 0,-1.285 0,0"
                   style="fill:#00adef;fill-opacity:1;fill-rule:nonzero;stroke:none"
                   id="path412"
                   inkscape:connector-curvature="0" />
              </g>
              <g
                 id="g414"
                 transform="translate(109.597,369.184)">
                <path
                   d="M 0,0 C 0,1.286 1.042,2.327 2.327,2.327 3.612,2.327 4.653,1.286 4.653,0 4.653,-1.285 3.612,-2.327 2.327,-2.327 1.042,-2.327 0,-1.285 0,0"
                   style="fill:#ed1c24;fill-opacity:1;fill-rule:nonzero;stroke:none"
                   id="path416"
                   inkscape:connector-curvature="0" />
              </g>
              <g
                 id="g418"
                 transform="translate(104.419,380.587)">
                <path
                   d="m 0,0 c 0,0 -0.016,-5.073 -0.01,-5.083 0.005,-0.11 -0.006,-0.293 0.015,-0.433 0.412,0.552 0.918,1.142 1.793,1.241 1.058,0.125 2.121,-0.235 2.549,-0.949 0.062,-0.105 0.292,-0.422 0.292,-1.439 l 0,-6.799 -3.466,-0.006 c 0,0 0,4.865 0,4.975 C 1.178,-8.05 1.23,-7.597 0.839,-7.445 0.646,-7.378 0.344,-7.404 0.193,-7.534 -0.073,-7.748 0.052,-8.061 0.005,-8.426 l 0,-5.042 -3.518,0 0,13.468 C -3.523,0 0,0 0,0"
                   style="fill:#231f20;fill-opacity:1;fill-rule:nonzero;stroke:none"
                   id="path420"
                   inkscape:connector-curvature="0" />
              </g>
              <g
                 id="g422"
                 transform="translate(100.333,375.571)">
                <path
                   d="m 0,0 c 0.01,-0.068 -0.85,-1.773 -1.251,-2.555 0,0 -0.693,0.647 -1.188,0.803 -0.183,0.052 -0.423,0.068 -0.574,-0.063 -0.052,-0.073 -0.125,-0.135 -0.114,-0.25 l -0.011,0 c -0.031,-0.339 0.24,-0.474 0.49,-0.62 1.329,-0.459 2.314,-1.246 2.466,-2.607 -0.021,-0.016 0.01,-0.032 0.015,-0.037 l 0,-0.313 -0.005,0 -0.005,-0.172 -0.011,-0.005 -0.005,-0.115 -0.01,0 c -0.198,-1.267 -1.038,-2.101 -2.288,-2.612 -1.689,-0.599 -3.451,0.12 -4.634,1.006 l -0.084,0.063 c 0.115,0.198 1.371,2.555 1.371,2.555 0.376,-0.386 0.772,-0.762 1.319,-1.012 0.266,-0.104 0.651,-0.219 0.896,-0.015 0.084,0.057 0.126,0.135 0.152,0.224 l 0.01,0 c 0.042,0.245 -0.073,0.375 -0.193,0.5 -0.599,0.459 -1.517,0.647 -2.059,1.153 -0.578,0.5 -0.912,1.173 -0.87,2.122 l 0.01,0 c 0.021,0.042 -0.015,0.104 0.021,0.13 -0.005,0.037 0.011,0.11 0.011,0.172 0.12,0.647 0.432,1.173 0.87,1.617 C -5.28,0.281 -4.879,0.6 -4.337,0.782 -2.82,1.335 -1.126,0.782 0,0"
                   style="fill:#231f20;fill-opacity:1;fill-rule:nonzero;stroke:none"
                   id="path424"
                   inkscape:connector-curvature="0" />
              </g>
              <g
                 id="g426"
                 transform="translate(119.347,369.898)">
                <path
                   d="m 0,0 2.392,-0.01 0,-2.769 -7.604,0 L -2.064,3.4 -4.462,3.394 -4.467,6.241 3.106,6.231 0,0"
                   style="fill:#231f20;fill-opacity:1;fill-rule:nonzero;stroke:none"
                   id="path428"
                   inkscape:connector-curvature="0" />
              </g>
            </g>
          </g>
        </g>
      </g>
    </g>
  </g>
</svg>
