<svg xmlns="http://www.w3.org/2000/svg" viewBox="0 0 2800 2102" height="2102" width="2800" id="svg590" version="1.1">
  <defs id="defs594">
    <linearGradient id="linearGradient4677">
      <stop id="stop4675" offset="0" style="stop-color:#ff5555;stop-opacity:1;"></stop>
    </linearGradient>
    <rect id="rect2609" height="115.03482" width="237.91293" y="1814.4129" x="311.11691"></rect>
    <rect id="rect414" height="162.68381" width="1441.9701" y="1717.4234" x="314.27554"></rect>
    <rect id="rect408" height="175.62457" width="1501.1279" y="1734.0615" x="286.54535"></rect>
    <rect id="rect294" height="142.34833" width="1451.2135" y="1715.5747" x="354.94649"></rect>
  </defs>
  
    
    
    
    
    
    
    
    
  
  <g id="g596">
    <text id="text404" y="1811.7061" x="1728.5155" style="font-style:normal;font-variant:normal;font-weight:bold;font-stretch:normal;font-size:96px;font-family:Georgia;-inkscape-font-specification:&#39;Georgia Bold&#39;;fill:#000000" xml:space="preserve"><tspan y="1811.7061" x="1728.5155" id="tspan402"></tspan></text>
    <g transform="matrix(1.4279123,0,0,1.4610036,-306.18466,-646.08025)" style="fill:#000000;fill-opacity:1;fill-rule:nonzero;stroke:#000000;stroke-opacity:1" id="g2605">
      <g style="font-weight:bold;font-size:96px;font-family:&#39;Mongolian Baiti&#39;;-inkscape-font-specification:&#39;Mongolian Baiti Bold&#39;;letter-spacing:21.3291px;white-space:pre;shape-inside:url(#rect414);fill:#000000;fill-opacity:1;fill-rule:nonzero;stroke:#000000;stroke-opacity:1" id="text412" transform="matrix(2.3839238,0,0,2.322096,-413.10498,-2578.6794)" aria-label="WolfsKnigge"></g>
      <g style="font-weight:bold;font-size:96px;font-family:&#39;Mongolian Baiti&#39;;-inkscape-font-specification:&#39;Mongolian Baiti Bold&#39;;fill:#000000;fill-opacity:1;fill-rule:nonzero;stroke:#000000;stroke-opacity:1" id="text516" aria-label="Hundetraining">
        <path d="m 2043.4033,1786.1721 q -3.9844,-1.9687 -6.0937,-5.3437 -2.0625,-3.4219 -2.0625,-7.6407 0,-3.1875 1.2656,-6 1.2656,-2.8593 3.5625,-4.9687 2.2969,-2.1094 5.3906,-3.3281 3.1406,-1.2657 6.8906,-1.2657 6.1875,0 10.6407,3 h 9.0937 q 1.0313,0 1.5469,0.047 0.5625,0 0.7969,0.094 0.2812,0.047 0.3281,0.1406 0.047,0.094 0.1406,0.2344 0.2813,0.4218 0.2813,1.5 0,0.7031 -0.047,1.1718 0,0.4219 -0.2813,0.6563 -0.2343,0.2344 -0.8906,0.3281 -0.6094,0.047 -1.875,0.047 h -5.5781 q 2.625,3.4219 2.625,8.625 0,2.9531 -1.2188,5.625 -1.1718,2.625 -3.375,4.5937 -2.2031,1.9688 -5.3437,3.1407 -3.1406,1.1718 -6.9844,1.1718 -3.1406,0 -6.5156,-0.9375 -2.1094,1.7813 -2.8125,3.1407 -0.7031,1.3125 -0.7031,2.25 0,0.7031 0.2812,1.2187 0.2813,0.5156 1.3125,0.8906 1.0781,0.3282 3.1406,0.5625 2.0625,0.1875 5.625,0.2813 4.8282,0.1406 7.9219,0.2812 3.1406,0.1407 4.5938,0.375 2.1562,0.2813 3.9375,1.125 1.7812,0.8438 3,2.1094 1.2656,1.2656 1.9218,2.9063 0.7032,1.6406 0.7032,3.5625 0,5.2968 -4.9688,9.9375 -7.3594,6.8437 -19.0781,6.8437 -3.2344,0 -6.5625,-0.7031 -3.3281,-0.7031 -6.0469,-1.9219 -2.7187,-1.1719 -4.4531,-2.8125 -1.7344,-1.6406 -1.7344,-3.5156 0,-0.7031 0.1875,-1.4531 0.2344,-0.7032 0.6563,-1.5469 0.4687,-0.7969 1.1718,-1.7813 0.75,-0.9843 1.7813,-2.2968 0.3281,-0.4219 4.7812,-5.0625 -2.4375,-1.4532 -3.4687,-2.5782 -0.9844,-1.1718 -0.9844,-2.625 0,-0.8437 0.2344,-1.7343 0.2344,-0.9375 1.0312,-2.1094 0.7969,-1.1719 2.25,-2.6719 1.5,-1.5 3.9844,-3.5625 z m 8.1563,-26.2969 q -1.6875,0 -3.1875,0.7032 -1.5,0.6562 -2.625,2.0625 -1.0782,1.3593 -1.7344,3.5156 -0.6094,2.1094 -0.6094,4.9687 0,3.1875 0.6094,5.8594 0.6562,2.6719 1.875,4.6406 1.2187,1.9219 2.9531,3 1.7344,1.0782 3.9375,1.0782 1.7813,0 3.2813,-0.6563 1.5,-0.6562 2.5781,-2.0156 1.0781,-1.3594 1.6875,-3.4219 0.6094,-2.1094 0.6094,-4.9687 0,-3.1407 -0.6563,-5.8125 -0.6094,-2.7188 -1.8281,-4.6875 -1.1719,-2.0157 -2.9063,-3.1407 -1.7343,-1.125 -3.9843,-1.125 z m -8.625,41.9532 q -4.4532,4.8281 -4.4532,8.25 0,1.5468 1.2657,2.8125 1.3125,1.2656 3.5156,2.1562 2.2031,0.8906 5.1562,1.3594 3,0.5156 6.3282,0.5156 4.2187,0 7.3125,-0.8437 3.1406,-0.8438 5.1562,-2.2032 2.0156,-1.3125 3,-3 0.9844,-1.6406 0.9844,-3.2812 0,-1.2188 -0.5156,-2.0625 -0.5157,-0.8438 -1.875,-1.4063 -1.3125,-0.5156 -3.6563,-0.8437 -2.3437,-0.2813 -6,-0.375 -5.2969,-0.1406 -9.3281,-0.4219 -4.0313,-0.2812 -6.8906,-0.6562 z m -46.5,-35.1094 q 7.5468,-9.0938 14.3906,-9.0938 2.3906,0 4.4062,0.7969 2.0157,0.7969 3.5157,2.6719 1.5,1.875 2.3437,4.9687 0.8438,3.0938 0.8438,7.7344 v 18.3281 q 0,2.7657 0.2812,4.3594 0.3281,1.5938 1.0781,2.4375 0.75,0.7969 2.0157,1.0313 1.2656,0.1875 3.1875,0.1875 v 1.6875 h -21.2344 v -1.6875 h 0.8906 q 2.1094,0 3.2813,-0.375 1.2187,-0.375 1.8281,-1.2657 0.6094,-0.9375 0.75,-2.4843 0.1875,-1.5469 0.1875,-3.8907 v -17.5781 q 0,-5.8594 -1.5469,-8.4844 -1.5,-2.6718 -5.1094,-2.6718 -5.5781,0 -11.1093,6.0937 v 22.6406 q 0,4.2657 0.5156,5.3907 0.3281,0.7031 0.7031,1.2187 0.4219,0.5156 1.0781,0.8438 0.7032,0.2812 1.7813,0.4218 1.125,0.1407 2.9062,0.1407 v 1.6875 h -21.2343 v -1.6875 h 0.9375 q 1.6875,0 2.7656,-0.375 1.0781,-0.375 1.6875,-1.3125 0.6562,-0.9375 0.8906,-2.4375 0.2344,-1.5469 0.2344,-3.8907 v -15.9375 q 0,-7.6406 -0.375,-9.4218 -0.3281,-1.6875 -1.0781,-2.2969 -0.7032,-0.6094 -1.9219,-0.6094 -1.3125,0 -3.1406,0.7031 l -0.7032,-1.6875 12.9375,-5.25 h 2.0157 z m -28.2657,-31.5469 q 0.9844,0 1.8282,0.375 0.8906,0.375 1.5,1.0313 0.6562,0.6093 1.0312,1.5 0.375,0.8437 0.375,1.8281 0,0.9844 -0.375,1.875 -0.375,0.8437 -1.0312,1.5 -0.6094,0.6562 -1.5,1.0312 -0.8438,0.375 -1.8282,0.375 -0.9843,0 -1.875,-0.375 -0.8437,-0.375 -1.5,-1.0312 -0.6562,-0.6563 -1.0312,-1.5 -0.375,-0.8906 -0.375,-1.875 0,-0.9844 0.375,-1.8281 0.375,-0.8907 0.9844,-1.5 0.6562,-0.6563 1.5468,-1.0313 0.8907,-0.375 1.875,-0.375 z m 3.8907,22.4531 v 34.5 q 0,2.0625 0.1406,3.375 0.1406,1.2657 0.4219,2.0625 0.2812,0.7969 0.7031,1.2188 0.4687,0.375 1.0312,0.7031 1.2188,0.6563 4.2188,0.6563 v 1.6875 h -20.8594 v -1.6875 q 1.5938,0 2.5781,-0.1407 1.0313,-0.1406 1.6407,-0.4687 0.6562,-0.3281 0.9843,-0.7969 0.375,-0.5156 0.7032,-1.2187 0.6562,-1.4532 0.6562,-5.3907 v -16.5468 q 0,-4.0782 -0.1406,-6.4219 -0.1406,-2.3438 -0.5156,-3.5156 -0.3282,-1.1719 -1.0313,-1.4532 -0.6562,-0.3281 -1.6875,-0.3281 -1.3125,0 -3.1875,0.7031 l -0.6562,-1.6875 12.9375,-5.25 z m -50.2969,9.0938 q 7.5469,-9.0938 14.3906,-9.0938 2.3906,0 4.4063,0.7969 2.0156,0.7969 3.5156,2.6719 1.5,1.875 2.3437,4.9687 0.8438,3.0938 0.8438,7.7344 v 18.3281 q 0,2.7657 0.2812,4.3594 0.3282,1.5938 1.0782,2.4375 0.75,0.7969 2.0156,1.0313 1.2656,0.1875 3.1875,0.1875 v 1.6875 h -21.2344 v -1.6875 h 0.8906 q 2.1094,0 3.2813,-0.375 1.2187,-0.375 1.8281,-1.2657 0.6094,-0.9375 0.75,-2.4843 0.1875,-1.5469 0.1875,-3.8907 v -17.5781 q 0,-5.8594 -1.5469,-8.4844 -1.5,-2.6718 -5.1093,-2.6718 -5.5782,0 -11.1094,6.0937 v 22.6406 q 0,4.2657 0.5156,5.3907 0.3281,0.7031 0.7031,1.2187 0.4219,0.5156 1.0782,0.8438 0.7031,0.2812 1.7812,0.4218 1.125,0.1407 2.9063,0.1407 v 1.6875 h -21.2344 v -1.6875 h 0.9375 q 1.6875,0 2.7656,-0.375 1.0781,-0.375 1.6875,-1.3125 0.6563,-0.9375 0.8906,-2.4375 0.2344,-1.5469 0.2344,-3.8907 v -15.9375 q 0,-7.6406 -0.375,-9.4218 -0.3281,-1.6875 -1.0781,-2.2969 -0.7031,-0.6094 -1.9219,-0.6094 -1.3125,0 -3.1406,0.7031 l -0.7031,-1.6875 12.9375,-5.25 h 2.0156 z m -28.2656,-31.5469 q 0.9843,0 1.8281,0.375 0.8906,0.375 1.5,1.0313 0.6562,0.6093 1.0312,1.5 0.375,0.8437 0.375,1.8281 0,0.9844 -0.375,1.875 -0.375,0.8437 -1.0312,1.5 -0.6094,0.6562 -1.5,1.0312 -0.8438,0.375 -1.8281,0.375 -0.9844,0 -1.875,-0.375 -0.8438,-0.375 -1.5,-1.0312 -0.6563,-0.6563 -1.0313,-1.5 -0.375,-0.8906 -0.375,-1.875 0,-0.9844 0.375,-1.8281 0.375,-0.8907 0.9844,-1.5 0.6562,-0.6563 1.5469,-1.0313 0.8906,-0.375 1.875,-0.375 z m 3.8906,22.4531 v 34.5 q 0,2.0625 0.1406,3.375 0.1406,1.2657 0.4219,2.0625 0.2812,0.7969 0.7031,1.2188 0.4688,0.375 1.0313,0.7031 1.2187,0.6563 4.2187,0.6563 v 1.6875 h -20.8594 v -1.6875 q 1.5938,0 2.5782,-0.1407 1.0312,-0.1406 1.6406,-0.4687 0.6562,-0.3281 0.9844,-0.7969 0.375,-0.5156 0.7031,-1.2187 0.6562,-1.4532 0.6562,-5.3907 v -16.5468 q 0,-4.0782 -0.1406,-6.4219 -0.1406,-2.3438 -0.5156,-3.5156 -0.3281,-1.1719 -1.0313,-1.4532 -0.6562,-0.3281 -1.6875,-0.3281 -1.3125,0 -3.1875,0.7031 l -0.6562,-1.6875 12.9375,-5.25 z m -33.0938,38.0157 q -6.6093,5.1562 -8.2968,5.9062 -2.4844,1.1719 -5.3907,1.1719 -2.2031,0 -4.0781,-0.7969 -1.875,-0.7969 -3.2344,-2.25 -1.3593,-1.4531 -2.1562,-3.4687 -0.75,-2.0625 -0.75,-4.5469 0,-1.8281 0.4687,-3.375 0.5157,-1.5469 1.5,-2.9063 0.9844,-1.4062 2.4844,-2.6718 1.5469,-1.2657 3.6094,-2.4844 4.8281,-2.8594 15.8437,-6.8438 v -1.6875 q 0,-3.2343 -0.5625,-5.3906 -0.5156,-2.1562 -1.5468,-3.4219 -0.9844,-1.3125 -2.4844,-1.8281 -1.5,-0.5625 -3.375,-0.5625 -1.5,0 -2.7188,0.4688 -1.1718,0.4218 -2.0156,1.1718 -0.8437,0.7032 -1.3125,1.6875 -0.4219,0.9375 -0.4219,1.9219 l 0.094,2.7188 q 0,2.1562 -1.125,3.3281 -1.0781,1.1719 -2.8594,1.1719 -1.7344,0 -2.8594,-1.2188 -1.0781,-1.2187 -1.0781,-3.3281 0,-1.9688 1.0313,-3.8906 1.0781,-1.9219 3.0468,-3.4688 2.0157,-1.5469 4.9219,-2.4844 2.9531,-0.9375 6.7031,-0.9375 4.9688,0 8.4375,1.4532 3.4688,1.4531 5.0157,5.0156 0.8437,2.0625 0.8437,8.25 v 14.5781 q 0,3.0938 0.047,4.9688 0.094,1.875 0.1875,2.5781 0.2344,1.3594 0.75,1.8281 0.5625,0.4688 1.2656,0.4688 0.4688,0 0.8906,-0.1407 0.4219,-0.1406 0.9844,-0.5625 0.5625,-0.4218 1.3125,-1.125 0.75,-0.75 1.9219,-1.9218 v 2.625 q -5.2969,7.0312 -10.0313,7.0312 -2.25,0 -3.6562,-1.5937 -1.4063,-1.5938 -1.4063,-5.4375 z m 0,-3.0469 v -16.3594 q -3.5625,1.4063 -5.8593,2.3906 -2.25,0.9844 -3.2813,1.5938 -3.7031,2.1094 -5.2969,4.3594 -1.5937,2.2031 -1.5937,4.875 0,1.6875 0.5156,3.1406 0.5625,1.4062 1.4531,2.4844 0.9375,1.0312 2.1563,1.6406 1.2187,0.5625 2.5312,0.5625 3.5625,0 9.375,-4.6875 z m -43.7343,-34.9688 v 9.6563 q 5.4375,-9.6563 11.0625,-9.6563 1.2656,0 2.3437,0.4219 1.0781,0.4219 1.875,1.1719 0.8438,0.7031 1.2656,1.6406 0.4688,0.9375 0.4688,1.9688 0,1.8281 -1.2188,3.0937 -1.2187,1.2656 -2.9062,1.2656 -0.7969,0 -1.7813,-0.5156 -0.9843,-0.5156 -1.9687,-1.0781 -0.9375,-0.6094 -1.7344,-1.125 -0.7969,-0.5156 -1.2187,-0.5156 -0.6094,0 -1.3594,0.5625 -0.75,0.5156 -1.5469,1.5 -0.7969,0.9375 -1.6406,2.2968 -0.8438,1.3125 -1.6406,2.9063 v 20.5781 q 0,1.9219 0.2343,3.4688 0.2344,1.5468 0.9844,2.625 0.7969,1.0781 2.2969,1.6875 1.5,0.5625 3.9844,0.5625 v 1.6875 h -21.9844 v -1.6875 q 2.0625,0 3.375,-0.2813 1.3125,-0.2812 2.0625,-1.125 0.75,-0.8437 1.0312,-2.3906 0.2813,-1.5938 0.2813,-4.1719 v -16.6406 q 0,-7.5938 -0.3281,-8.9063 -0.6094,-2.7656 -3.1407,-2.7656 -1.4531,0 -3.2812,0.7031 l -0.4688,-1.6875 12.9844,-5.25 z m -26.7657,-12.8437 v 14.1094 h 10.0313 v 3.2812 h -10.0313 v 27.8438 q 0,2.1093 0.3282,3.5156 0.3281,1.3594 0.8906,2.1562 0.5625,0.7969 1.3125,1.125 0.7969,0.2813 1.7344,0.2813 1.5468,0 3,-0.9375 1.4531,-0.9844 2.25,-2.8594 h 1.8281 q -0.8438,2.2969 -2.0625,4.0313 -1.1719,1.7343 -2.5781,2.9062 -1.4063,1.125 -3,1.6875 -1.5938,0.6094 -3.1875,0.6094 -1.0782,0 -2.2032,-0.3281 -1.0781,-0.2813 -2.0625,-0.8438 -0.9375,-0.6094 -1.7343,-1.4531 -0.7969,-0.8438 -1.2657,-1.9688 -0.9843,-2.25 -0.9843,-6.8906 v -28.875 h -6.7969 v -1.5469 q 2.5781,-1.0312 5.25,-3.4687 2.7187,-2.4844 4.8281,-5.8594 0.5156,-0.8906 1.2656,-2.4844 0.7969,-1.6406 1.7344,-4.0312 z m -47.8593,30.2812 q 0,4.7813 1.2656,8.5782 1.2656,3.7968 3.4219,6.4687 2.1562,2.625 4.9687,4.0313 2.8594,1.3593 6,1.3593 4.2188,0 7.3125,-2.2968 3.1406,-2.3438 5.25,-7.9688 l 1.4531,0.9375 q -0.5156,3.1406 -1.9687,6.1875 -1.4531,3.0469 -3.75,5.4375 -2.25,2.3906 -5.2969,3.8906 -3,1.4532 -6.5625,1.4532 -3.8437,0 -7.2656,-1.5469 -3.375,-1.5938 -5.9531,-4.4531 -2.5313,-2.9063 -4.0313,-6.9844 -1.5,-4.125 -1.5,-9.2344 0,-5.5781 1.5,-9.8906 1.5469,-4.3594 4.2188,-7.3594 2.6718,-3 6.2812,-4.5469 3.6563,-1.5468 7.8281,-1.5468 3.5625,0 6.5625,1.2656 3.0469,1.2187 5.25,3.5156 2.2032,2.2969 3.4219,5.5313 1.2656,3.1875 1.2656,7.1718 z m 0,-2.7187 h 19.875 q -0.1875,-4.125 -0.9844,-5.8125 -1.1719,-2.625 -3.5156,-4.125 -2.2969,-1.5 -4.8282,-1.5 -1.9218,0 -3.7031,0.7969 -1.7812,0.75 -3.2344,2.25 -1.4531,1.4531 -2.4375,3.5625 -0.9375,2.1093 -1.1718,4.8281 z m -24.8907,24.6562 q -3.1406,3.2813 -6.1406,4.7344 -2.9531,1.4063 -6.4687,1.4063 -3.5157,0 -6.7032,-1.5469 -3.1406,-1.5938 -5.5781,-4.3594 -2.3906,-2.8125 -3.8437,-6.6562 -1.4063,-3.8438 -1.4063,-8.4375 0,-9.2344 5.8125,-16.875 5.8594,-7.6875 14.9531,-7.6875 5.625,0 9.375,3.6093 v -14.0625 q 0,-0.8437 0.047,-1.8281 0.094,-1.0312 -0.1406,-1.9219 -0.2344,-0.8906 -0.9375,-1.4531 -0.7031,-0.6094 -2.2969,-0.6094 -1.2656,0 -3.2344,0.75 l -0.6093,-1.6406 12.7968,-5.25 h 2.1094 v 49.6406 q 0,7.6407 0.3281,9.2344 0.375,1.6406 1.125,2.2969 0.7969,0.6562 1.8282,0.6562 1.2187,0 3.375,-0.7968 l 0.5156,1.6406 -12.75,5.2969 h -2.1563 z m 0,-3.2812 v -22.125 q -0.2343,-2.6719 -1.2187,-4.7344 -0.9375,-2.0625 -2.3438,-3.4687 -1.3593,-1.4532 -3.0468,-2.1563 -1.6407,-0.75 -3.3282,-0.75 -2.4843,0 -4.5937,1.3125 -2.1094,1.2656 -3.7031,3.6563 -1.5469,2.3437 -2.4375,5.6718 -0.8907,3.2813 -0.8907,7.3125 0,4.7344 1.125,8.3907 1.1719,3.6562 3.0469,6.1406 1.875,2.4844 4.2656,3.75 2.3907,1.2656 4.875,1.2656 4.2657,0 8.25,-4.2656 z m -65.8125,-27 q 7.5469,-9.0938 14.3907,-9.0938 2.3906,0 4.4062,0.7969 2.0156,0.7969 3.5156,2.6719 1.5,1.875 2.3438,4.9687 0.8437,3.0938 0.8437,7.7344 v 18.3281 q 0,2.7657 0.2813,4.3594 0.3281,1.5938 1.0781,2.4375 0.75,0.7969 2.0156,1.0313 1.2657,0.1875 3.1875,0.1875 v 1.6875 h -21.2343 v -1.6875 h 0.8906 q 2.1094,0 3.2812,-0.375 1.2188,-0.375 1.8282,-1.2657 0.6093,-0.9375 0.75,-2.4843 0.1875,-1.5469 0.1875,-3.8907 v -17.5781 q 0,-5.8594 -1.5469,-8.4844 -1.5,-2.6718 -5.1094,-2.6718 -5.5781,0 -11.1094,6.0937 v 22.6406 q 0,4.2657 0.5157,5.3907 0.3281,0.7031 0.7031,1.2187 0.4219,0.5156 1.0781,0.8438 0.7031,0.2812 1.7813,0.4218 1.125,0.1407 2.9062,0.1407 v 1.6875 h -21.2344 v -1.6875 h 0.9375 q 1.6875,0 2.7657,-0.375 1.0781,-0.375 1.6875,-1.3125 0.6562,-0.9375 0.8906,-2.4375 0.2344,-1.5469 0.2344,-3.8907 v -15.9375 q 0,-7.6406 -0.375,-9.4218 -0.3282,-1.6875 -1.0782,-2.2969 -0.7031,-0.6094 -1.9218,-0.6094 -1.3125,0 -3.1407,0.7031 l -0.7031,-1.6875 12.9375,-5.25 h 2.0156 z m -22.875,-7.8281 v 26.0156 q 0,7.5469 0.3282,9.1406 0.375,1.6406 1.125,2.2969 0.7968,0.6562 1.8281,0.6562 1.4062,0 3.2812,-0.7968 l 0.6563,1.6406 -12.8438,5.2969 h -2.1093 v -9.0938 q -5.5782,6 -8.4375,7.5469 -2.9063,1.5469 -6.1407,1.5469 -3.6093,0 -6.2343,-2.0157 -2.625,-2.0625 -3.7032,-5.4375 -1.0312,-3.2343 -1.0312,-9.2812 v -19.1719 q 0,-2.1094 -0.375,-3.4219 -0.3281,-1.3125 -1.125,-2.0156 -0.7969,-0.7031 -2.1094,-0.9375 -1.2656,-0.2344 -3.0937,-0.2344 h -0.5625 v -1.7343 h 15.0468 v 28.7343 q 0,3.0938 0.5625,5.0157 0.6094,1.9218 1.5938,3 0.9844,1.0312 2.25,1.4062 1.3125,0.3281 2.7187,0.3281 0.9844,0 2.1094,-0.2812 1.1719,-0.2813 2.4375,-0.9844 1.3125,-0.7031 2.8125,-1.875 1.5,-1.1719 3.2813,-2.9531 v -24.3281 q 0,-1.8282 -0.2813,-3 -0.2812,-1.2188 -1.0781,-1.9219 -0.75,-0.75 -2.1094,-1.0313 -1.3125,-0.3281 -3.4219,-0.375 v -1.7343 z m -90.2343,8.8593 h 29.5312 v -18.1875 q 0,-2.25 -0.094,-3.6562 -0.094,-1.4063 -0.375,-2.2969 -0.2344,-0.9375 -0.75,-1.4531 -0.5157,-0.5625 -1.3594,-1.0313 -2.0625,-1.125 -4.2656,-1.125 h -2.25 v -1.7343 h 27.2343 l -0.047,1.7343 h -2.25 q -0.8907,0 -1.875,0.1875 -0.9844,0.1875 -1.875,0.6094 -0.8907,0.4219 -1.5938,1.0781 -0.6562,0.6094 -0.9844,1.5 -0.5156,1.5469 -0.5156,6.1875 v 41.0157 q 0,2.25 0.094,3.6562 0.094,1.4063 0.3281,2.3438 0.2812,0.8906 0.75,1.4062 0.5156,0.5156 1.3594,0.9844 2.0156,1.125 4.3125,1.125 h 2.25 v 1.7344 h -27.1875 v -1.7344 h 2.25 q 3.8437,0 5.6718,-2.2969 1.1719,-1.4531 1.1719,-7.2187 v -19.3594 h -29.5312 v 19.3594 q 0,2.25 0.094,3.6562 0.094,1.4063 0.3281,2.2969 0.2813,0.8906 0.7969,1.4531 0.5156,0.5156 1.3594,0.9844 2.0156,1.125 4.2656,1.125 h 2.2969 v 1.7344 h -27.2344 v -1.7344 h 2.25 q 3.9844,0 5.7188,-2.2969 1.125,-1.4531 1.125,-7.2187 v -41.0157 q 0,-2.25 -0.094,-3.6562 -0.094,-1.4063 -0.375,-2.2969 -0.2344,-0.9375 -0.75,-1.4531 -0.4687,-0.5625 -1.3125,-1.0313 -2.0625,-1.125 -4.3125,-1.125 h -2.25 v -1.7343 h 27.2344 v 1.7343 h -2.2969 q -0.9375,0 -1.9219,0.1875 -0.9375,0.1875 -1.8281,0.6094 -0.8437,0.4219 -1.5469,1.0781 -0.6562,0.6094 -0.9843,1.5 -0.5625,1.5 -0.5625,6.1875 z m 458.2443,-215.7283 q 0,11.1024 3.0173,19.9192 3.0171,8.8168 8.1573,15.021 5.1405,6.0955 11.8452,9.361 6.8166,3.1567 14.3036,3.1567 10.057,0 17.4324,-5.3336 7.487,-5.4426 12.5156,-18.5044 l 3.4641,2.177 q -1.2291,7.293 -4.6932,14.368 -3.4643,7.0752 -8.9397,12.6264 -5.3639,5.5514 -12.6274,9.0345 -7.1518,3.3743 -15.6445,3.3743 -9.1634,0 -17.3207,-3.5921 -8.0457,-3.7007 -14.192,-10.3405 -6.0341,-6.7487 -9.61,-16.2184 -3.5759,-9.5787 -3.5759,-21.4432 0,-12.9529 3.5759,-22.9669 3.6877,-10.123 10.057,-17.0893 6.3696,-6.9662 14.9742,-10.5581 8.7161,-3.592 18.6616,-3.592 8.4927,0 15.6445,2.9388 7.2635,2.8302 12.5156,8.1636 5.252,5.3336 8.1575,12.8442 3.0171,7.4017 3.0171,16.6538 z m 0,-6.3133 h 47.3804 q -0.4469,-9.5786 -2.3464,-13.4972 -2.7938,-6.0955 -8.3812,-9.5786 -5.4754,-3.4831 -11.5098,-3.4831 -4.5817,0 -8.8279,1.8504 -4.2465,1.7416 -7.7106,5.2247 -3.4641,3.3743 -5.8108,8.2725 -2.2349,4.8982 -2.7937,11.2113 z m -155.1063,32.1102 q -9.4985,-4.5715 -14.5271,-12.4086 -4.9168,-7.946 -4.9168,-17.7422 0,-7.4017 3.0171,-13.9326 3.0172,-6.6398 8.4928,-11.538 5.4755,-4.8982 12.8508,-7.7282 7.487,-2.9388 16.4267,-2.9388 14.7506,0 25.3665,6.9663 h 21.6788 q 2.4584,0 3.6876,0.1091 1.341,0 1.8997,0.2183 0.6705,0.1091 0.7822,0.3265 0.1118,0.2183 0.3353,0.5443 0.6704,0.9797 0.6704,3.4831 0,1.6327 -0.1118,2.7213 0,0.9794 -0.6704,1.5237 -0.5588,0.5443 -2.1232,0.7619 -1.4527,0.1092 -4.4699,0.1092 h -13.2978 q 6.2578,7.9459 6.2578,20.028 0,6.8574 -2.9054,13.0618 -2.7937,6.0955 -8.0458,10.6673 -5.2521,4.5715 -12.7391,7.2928 -7.487,2.7212 -16.6502,2.7212 -7.487,0 -15.5327,-2.1769 -5.0286,4.1361 -6.7048,7.2927 -1.6762,3.0478 -1.6762,5.2247 0,1.6327 0.6705,2.83 0.6704,1.1975 3.1289,2.0683 2.5701,0.7619 7.487,1.3062 4.9168,0.4353 13.4096,0.6529 11.5098,0.3265 18.8851,0.6532 7.487,0.3265 10.9511,0.8708 5.1404,0.653 9.3867,2.6124 4.2464,1.9591 7.1518,4.898 3.0172,2.939 4.5816,6.7487 1.6762,3.8096 1.6762,8.2724 0,12.3 -11.8451,23.0759 -17.5442,15.8917 -45.4808,15.8917 -7.7105,0 -15.6445,-1.6327 -7.934,-1.6326 -14.4153,-4.4628 -6.4813,-2.721 -10.6159,-6.5309 -4.1346,-3.8096 -4.1346,-8.1636 0,-1.6326 0.447,-3.3742 0.5587,-1.6327 1.5644,-3.592 1.1175,-1.8505 2.7937,-4.1362 1.7879,-2.2858 4.2463,-5.3336 0.7823,-0.9797 11.3982,-11.7556 -5.8108,-3.3742 -8.2693,-5.9866 -2.3466,-2.7213 -2.3466,-6.0955 0,-1.9594 0.5587,-4.0274 0.5587,-2.177 2.4584,-4.8983 1.8997,-2.7212 5.3639,-6.2044 3.5758,-3.4831 9.4984,-8.2724 z m 19.4438,-61.0637 q -4.0228,0 -7.5987,1.6327 -3.5759,1.5237 -6.2578,4.7893 -2.5702,3.1567 -4.1346,8.1636 -1.4527,4.8982 -1.4527,11.538 0,7.4017 1.4527,13.6058 1.5644,6.2045 4.4698,10.7762 2.9054,4.4626 7.04,6.9663 4.1347,2.5034 9.3867,2.5034 4.2464,0 7.8223,-1.524 3.5759,-1.5237 6.1461,-4.6804 2.5701,-3.1566 4.0228,-7.946 1.4527,-4.898 1.4527,-11.5378 0,-7.2927 -1.5644,-13.4971 -1.4527,-6.3134 -4.3581,-10.8849 -2.7937,-4.6804 -6.9283,-7.2927 -4.1346,-2.6124 -9.4985,-2.6124 z m -20.5613,97.4191 q -10.6159,11.2113 -10.6159,19.1573 0,3.5921 3.0171,6.5309 3.1289,2.9389 8.381,5.0069 5.2521,2.0683 12.2921,3.1567 7.1518,1.1973 15.0858,1.1973 10.0572,0 17.4324,-1.9592 7.4871,-1.9594 12.2921,-5.1158 4.8052,-3.0478 7.1518,-6.9663 2.3467,-3.8099 2.3467,-7.6195 0,-2.8299 -1.2292,-4.7893 -1.2292,-1.9592 -4.4699,-3.2653 -3.1289,-1.1976 -8.7162,-1.9594 -5.5873,-0.653 -14.3035,-0.8708 -12.6274,-0.3265 -22.2376,-0.9797 -9.6102,-0.653 -16.4267,-1.5238 z m -164.1578,-36.3554 q -9.4985,-4.5715 -14.5271,-12.4086 -4.9168,-7.946 -4.9168,-17.7422 0,-7.4017 3.0172,-13.9326 3.0171,-6.6398 8.4927,-11.538 5.4755,-4.8982 12.8508,-7.7282 7.487,-2.9388 16.4267,-2.9388 14.7506,0 25.3665,6.9663 h 21.6788 q 2.4584,0 3.6876,0.1091 1.341,0 1.8997,0.2183 0.6705,0.1091 0.7822,0.3265 0.1118,0.2183 0.3353,0.5443 0.6704,0.9797 0.6704,3.4831 0,1.6327 -0.1118,2.7213 0,0.9794 -0.6704,1.5237 -0.5588,0.5443 -2.1232,0.7619 -1.4527,0.1092 -4.4699,0.1092 h -13.2978 q 6.2578,7.9459 6.2578,20.028 0,6.8574 -2.9054,13.0618 -2.7937,6.0955 -8.0458,10.6673 -5.252,4.5715 -12.739,7.2928 -7.4871,2.7212 -16.6503,2.7212 -7.487,0 -15.5327,-2.1769 -5.0286,4.1361 -6.7048,7.2927 -1.6762,3.0478 -1.6762,5.2247 0,1.6327 0.6705,2.83 0.6704,1.1975 3.1289,2.0683 2.5701,0.7619 7.487,1.3062 4.9168,0.4353 13.4096,0.6529 11.5098,0.3265 18.8851,0.6532 7.487,0.3265 10.9511,0.8708 5.1404,0.653 9.3867,2.6124 4.2464,1.9591 7.1518,4.898 3.0172,2.939 4.5816,6.7487 1.6762,3.8096 1.6762,8.2724 0,12.3 -11.8451,23.0759 -17.5442,15.8917 -45.4808,15.8917 -7.7105,0 -15.6445,-1.6327 -7.934,-1.6326 -14.4153,-4.4628 -6.4813,-2.721 -10.6159,-6.5309 -4.1346,-3.8096 -4.1346,-8.1636 0,-1.6326 0.447,-3.3742 0.5587,-1.6327 1.5644,-3.592 1.1175,-1.8505 2.7937,-4.1362 1.7879,-2.2858 4.2464,-5.3336 0.7822,-0.9797 11.3981,-11.7556 -5.8108,-3.3742 -8.2692,-5.9866 -2.3467,-2.7213 -2.3467,-6.0955 0,-1.9594 0.5587,-4.0274 0.5587,-2.177 2.4584,-4.8983 1.8997,-2.7212 5.3639,-6.2044 3.5758,-3.4831 9.4984,-8.2724 z m 19.4438,-61.0637 q -4.0228,0 -7.5987,1.6327 -3.5759,1.5237 -6.2578,4.7893 -2.5702,3.1567 -4.1346,8.1636 -1.4527,4.8982 -1.4527,11.538 0,7.4017 1.4527,13.6058 1.5644,6.2045 4.4698,10.7762 2.9054,4.4626 7.0401,6.9663 4.1346,2.5034 9.3867,2.5034 4.2463,0 7.8222,-1.524 3.5759,-1.5237 6.1461,-4.6804 2.5701,-3.1566 4.0228,-7.946 1.4527,-4.898 1.4527,-11.5378 0,-7.2927 -1.5644,-13.4971 -1.4527,-6.3134 -4.3581,-10.8849 -2.7937,-4.6804 -6.9283,-7.2927 -4.1346,-2.6124 -9.4985,-2.6124 z m -20.5613,97.4191 q -10.6159,11.2113 -10.6159,19.1573 0,3.5921 3.0171,6.5309 3.1289,2.9389 8.381,5.0069 5.2521,2.0683 12.2921,3.1567 7.1518,1.1973 15.0858,1.1973 10.0572,0 17.4324,-1.9592 7.4871,-1.9594 12.2922,-5.1158 4.8051,-3.0478 7.1517,-6.9663 2.3467,-3.8099 2.3467,-7.6195 0,-2.8299 -1.2292,-4.7893 -1.2292,-1.9592 -4.4699,-3.2653 -3.1289,-1.1976 -8.7162,-1.9594 -5.5873,-0.653 -14.3035,-0.8708 -12.6274,-0.3265 -22.2376,-0.9797 -9.6102,-0.653 -16.4267,-1.5238 z m -114.6541,-154.7823 q 2.3466,0 4.3581,0.8708 2.1231,0.8708 3.5758,2.3948 1.5645,1.4151 2.4585,3.4831 0.8939,1.9592 0.8939,4.245 0,2.2859 -0.8939,4.354 -0.894,1.9593 -2.4585,3.4831 -1.4527,1.524 -3.5758,2.3948 -2.0115,0.8708 -4.3581,0.8708 -2.3467,0 -4.4699,-0.8708 -2.0114,-0.8708 -3.5759,-2.3948 -1.5644,-1.5238 -2.4584,-3.4831 -0.894,-2.0681 -0.894,-4.354 0,-2.2858 0.894,-4.245 0.894,-2.068 2.3467,-3.4831 1.5644,-1.524 3.6876,-2.3948 2.1232,-0.8708 4.4699,-0.8708 z m 9.2749,52.1385 v 80.1123 q 0,4.7893 0.3352,7.8371 0.3353,2.9388 1.0058,4.7893 0.6704,1.8502 1.6762,2.8299 1.1174,0.8708 2.4584,1.6327 2.9054,1.524 10.0572,1.524 v 3.9185 h -49.7272 v -3.9185 q 3.7994,0 6.1461,-0.3265 2.4584,-0.3267 3.9111,-1.0886 1.5644,-0.7619 2.3467,-1.8505 0.8939,-1.1972 1.6761,-2.8299 1.5645,-3.3742 1.5645,-12.5175 v -38.4235 q 0,-9.4697 -0.3352,-14.9123 -0.3353,-5.4423 -1.2293,-8.1635 -0.7822,-2.7213 -2.4584,-3.3743 -1.5644,-0.7621 -4.0229,-0.7621 -3.1289,0 -7.5987,1.6329 l -1.5645,-3.9185 30.8421,-12.191 z m -170.7509,21.1164 q 17.9912,-21.1164 34.3062,-21.1164 5.699,0 10.5041,1.8502 4.8051,1.8505 8.381,6.2044 3.5759,4.354 5.5873,11.5381 2.0115,7.1838 2.0115,17.9598 v 42.5598 q 0,6.422 0.6705,10.1227 0.7822,3.701 2.5701,5.6601 1.788,1.8505 4.8051,2.3948 3.0172,0.4354 7.5988,0.4354 v 3.9185 h -50.6211 v -3.9185 h 2.1231 q 5.0286,0 7.8223,-0.8708 2.9054,-0.8708 4.3581,-2.9388 1.4527,-2.177 1.7879,-5.7691 0.447,-3.592 0.447,-9.0343 v -40.8183 q 0,-13.6058 -3.6876,-19.7013 -3.5759,-6.2044 -12.1804,-6.2044 -13.2978,0 -26.4839,14.1501 v 52.5739 q 0,9.9051 1.2292,12.5175 0.7823,1.6327 1.6762,2.8299 1.0058,1.1975 2.5702,1.9594 1.6762,0.653 4.2464,0.9797 2.6819,0.3265 6.9282,0.3265 v 3.9185 h -50.6211 v -3.9185 h 2.2349 q 4.0229,0 6.5931,-0.8708 2.5701,-0.8708 4.0229,-3.0477 1.5644,-2.177 2.1231,-5.6602 0.5588,-3.592 0.5588,-9.0343 v -37.0084 q 0,-17.7424 -0.894,-21.8786 -0.7822,-3.9185 -2.5702,-5.3336 -1.6762,-1.4151 -4.5816,-1.4151 -3.1289,0 -7.487,1.6329 l -1.6762,-3.9185 30.842,-12.191 h 4.8051 z m -184.7192,-0.3265 55.8733,54.0977 q 13.7448,13.3883 23.4667,18.2865 9.8337,4.7893 19.4439,5.4423 v 4.0274 h -72.0764 v -4.0274 q 6.4812,0 9.2749,-2.0681 2.9054,-2.1769 2.9054,-4.7893 0,-1.3062 -0.1118,-2.2859 -0.1118,-1.0883 -0.894,-2.2858 -0.6705,-1.1973 -2.3467,-3.0478 -1.5644,-1.8502 -4.6933,-4.7893 l -52.2973,-50.3967 v 47.5668 q 0,5.2247 0.2233,8.49 0.2234,3.2656 0.7823,5.3336 0.6704,2.0681 1.8996,3.3743 1.2293,1.1975 3.2407,2.2858 4.8051,2.6124 10.1689,2.6124 h 5.1404 v 4.0274 h -64.5895 v -4.0274 h 5.3638 q 9.4985,0 13.6331,-5.3336 2.6819,-3.3743 2.6819,-16.7625 v -95.3511 q 0,-5.0072 -0.2233,-8.2725 -0.1119,-3.2655 -0.7823,-5.3336 -0.6704,-2.177 -1.8997,-3.4831 -1.1174,-1.3062 -3.1289,-2.3946 -4.9168,-2.6124 -10.2806,-2.6124 h -5.3639 v -4.0274 h 64.5895 v 4.0274 h -5.1404 q -2.1231,0 -4.4698,0.4354 -2.2349,0.4354 -4.3581,1.4149 -2.0115,0.8708 -3.6877,2.3948 -1.6761,1.4151 -2.4584,3.4831 -1.3409,3.4832 -1.3409,14.368 v 45.1719 q 4.3581,-3.4831 9.9454,-8.49 5.5873,-5.0071 11.3981,-10.5583 5.9226,-5.5512 11.6217,-11.1027 5.8108,-5.5512 10.5041,-10.2316 4.6934,-4.7893 7.8223,-8.2725 3.2406,-3.4831 4.1346,-4.6804 3.0172,-4.3539 3.0172,-7.6195 0,-2.5034 -2.3467,-4.3539 -2.235,-1.9592 -7.934,-1.9592 h -3.4642 v -4.0274 h 55.6498 v 4.0274 q -4.9169,0.2183 -8.9398,1.3062 -2.0114,0.653 -4.4698,1.7416 -2.4584,1.0884 -5.4756,2.9388 -2.9054,1.8505 -6.4813,4.5716 -3.4641,2.6123 -7.7105,6.4222 z m -134.992,-20.7899 v 33.9606 h -3.6876 q -2.1232,-8.0548 -4.8051,-13.2796 -2.6819,-5.3336 -6.146,-8.49 -3.3524,-3.1567 -7.5988,-4.4628 -4.1346,-1.3062 -9.2749,-1.3062 -3.9112,0 -7.1518,1.1973 -3.1289,1.0885 -5.4756,2.9388 -2.2349,1.7416 -3.5759,4.1363 -1.2292,2.2859 -1.2292,4.6805 0,3.0477 0.894,5.6601 0.894,2.6123 3.6876,5.4425 2.9054,2.721 8.1575,5.8777 5.3638,3.1566 14.3035,7.4017 8.2693,3.9185 13.8566,7.7281 5.6991,3.8099 9.1632,7.6195 3.5759,3.8097 5.0286,7.946 1.5644,4.0272 1.5644,8.3812 0,6.8576 -3.0171,12.5177 -2.9054,5.5512 -7.7105,9.4697 -4.8051,3.9186 -10.9512,6.0955 -6.146,2.177 -12.5156,2.177 -4.6933,0 -10.0571,-0.7619 -5.3639,-0.7621 -11.3982,-2.5037 -1.8997,-0.544 -3.3524,-0.7619 -1.4527,-0.3264 -2.6819,-0.3264 -2.4584,0 -4.0229,2.8299 h -3.6876 v -35.5933 h 3.6876 q 1.5645,7.6195 4.6934,13.3882 3.1289,5.7691 7.2635,9.5787 4.2464,3.8099 9.275,5.769 5.1403,1.9594 10.5041,1.9594 3.7994,0 6.9283,-1.1975 3.2407,-1.1973 5.5873,-3.1564 2.3467,-2.0683 3.5759,-4.7894 1.341,-2.7212 1.341,-5.8779 0,-3.7007 -1.1175,-6.6398 -1.1175,-3.0477 -4.1346,-5.8777 -3.0172,-2.8301 -8.2692,-5.8779 -5.2521,-3.1564 -13.5214,-7.1839 -8.2692,-3.9185 -13.4095,-7.2927 -5.0286,-3.3745 -7.934,-6.7487 -2.9054,-3.4832 -3.9112,-7.1839 -1.0057,-3.8099 -1.0057,-8.5992 0,-6.0955 2.235,-11.3202 2.3466,-5.3334 6.4813,-9.1433 4.1346,-3.9185 9.8336,-6.0955 5.6991,-2.2856 12.5156,-2.2856 2.1232,0 5.4756,0.653 3.3524,0.6532 6.7048,1.415 3.4641,0.7619 6.2578,1.4151 2.7937,0.653 3.7994,0.653 1.7879,0 2.7936,-0.7619 1.0057,-0.7619 2.3467,-3.3742 z m -153.20663,10.7759 v 65.5265 q 0,13.9326 3.1289,17.6336 4.24637,4.7893 11.06289,4.7893 h 9.27496 v 3.9185 h -61.12531 v -3.9185 h 4.58162 q 4.46986,0 8.04574,-2.0681 3.68762,-2.1769 5.14034,-5.9868 1.45269,-3.5918 1.45269,-14.368 v -65.5265 h -19.89087 v -7.8371 h 19.89087 v -6.5309 q 0,-14.8033 4.91684,-25.2528 2.45842,-5.1158 6.2578,-9.361 3.91114,-4.245 8.82798,-7.2928 4.91684,-3.0477 10.6159,-4.6804 5.81081,-1.7416 12.06861,-1.7416 4.35813,0 9.27497,1.4151 4.91684,1.4149 9.05145,3.9185 4.24636,2.3946 6.92828,5.7688 2.79367,3.3745 2.79367,7.293 0,1.6327 -0.78224,3.2654 -0.78221,1.524 -2.12317,2.8301 -1.22922,1.3062 -2.9054,2.177 -1.67621,0.7619 -3.3524,0.7619 -1.34095,0 -2.68191,-0.3265 -1.22922,-0.3267 -2.68192,-1.3062 -1.45271,-1.0886 -3.24065,-2.9391 -1.67619,-1.8502 -3.79938,-4.898 -2.12317,-3.0477 -4.02287,-5.0071 -1.78795,-1.9592 -3.68762,-3.0478 -1.78795,-1.1972 -3.68765,-1.6326 -1.78794,-0.4354 -3.91111,-0.4354 -5.14034,0 -8.71622,2.7213 -3.57589,2.6123 -5.14034,8.2724 -1.56445,5.7688 -1.56445,28.8446 v 7.1841 h 26.37216 v 7.8371 z m -119.23579,-62.9144 v 132.2508 q 0,4.7893 0.33526,7.8371 0.33522,2.9388 1.0057,4.7893 0.67048,1.7416 1.67621,2.721 1.11746,0.9797 2.68191,1.7416 2.68192,1.524 10.8394,1.524 v 3.9185 h -50.17414 v -3.9185 q 5.02858,0 7.93399,-0.7619 3.01716,-0.7621 4.58161,-2.8302 1.67619,-2.068 2.12317,-5.6601 0.44699,-3.592 0.44699,-9.3608 v -90.5617 q 0,-8.4903 -0.22338,-13.6061 -0.1118,-5.2247 -0.55872,-7.0752 -0.89397,-3.9186 -2.57018,-5.3336 -1.67618,-1.4149 -4.3581,-1.4149 -3.01716,0 -7.37526,1.7416 l -1.8997,-3.8099 30.50679,-12.191 z m -150.413,52.1385 q 10.83939,0 19.89086,4.1361 9.05145,4.1364 15.53275,11.1026 6.59305,6.9663 10.16893,16.2183 3.68762,9.2521 3.68762,19.484 0,10.7759 -3.79938,20.681 -3.68762,9.7965 -10.3924,17.4157 -6.70479,7.6195 -15.97975,12.191 -9.27494,4.4629 -20.33785,4.4629 -10.83939,0 -19.77911,-4.3539 -8.82798,-4.354 -15.19751,-11.5381 -6.36956,-7.2928 -9.83369,-16.6536 -3.46415,-9.3611 -3.46415,-19.3751 0,-10.1229 3.57589,-19.8103 3.57588,-9.6875 10.05717,-17.1981 6.59306,-7.6193 15.6445,-12.191 9.16321,-4.5715 20.22612,-4.5715 z m -3.46415,7.075 q -4.91684,0 -9.49844,2.0682 -4.46985,1.9592 -8.04574,6.5309 -3.46415,4.4626 -5.58732,11.6467 -2.12319,7.0752 -2.12319,17.3069 0,10.5583 2.23492,20.2458 2.34669,9.6874 6.4813,17.089 4.24636,7.2931 10.16893,11.647 6.03431,4.3539 13.40958,4.3539 5.36382,0 9.83368,-1.9594 4.58159,-2.068 7.93399,-6.5309 3.35239,-4.5715 5.25209,-11.9732 1.89968,-7.4016 1.89968,-18.1778 0,-10.7759 -2.12317,-20.2456 -2.1232,-9.4698 -6.2578,-16.545 -4.02287,-7.1841 -10.05718,-11.3202 -5.92257,-4.1363 -13.52133,-4.1363 z M 550.32152,1466.576 v 4.0274 q -3.01717,0 -5.36383,0.5441 -2.34669,0.4354 -4.35812,1.6329 -1.89968,1.0884 -3.57589,2.9389 -1.67618,1.8504 -3.35239,4.6804 -2.12317,3.7009 -7.04002,18.1776 l -42.24015,118.9712 h -4.46985 l -34.52966,-94.3714 -34.30614,94.3714 h -4.02287 l -45.03383,-122.563 q -5.14033,-13.9326 -6.36953,-16.2185 -2.23493,-4.1363 -6.03431,-6.0955 -3.79938,-2.0681 -10.50416,-2.0681 v -4.0274 h 56.0967 v 4.0274 h -2.68191 q -6.03431,0 -9.16321,2.6124 -3.01716,2.6124 -3.01716,6.3131 0,1.8505 1.11746,6.3133 1.22922,4.3539 3.79938,11.2113 l 29.83631,82.8336 25.14293,-70.425 -8.04574,-22.3137 q -1.78794,-4.0275 -3.68762,-7.0752 -1.78794,-3.0478 -4.24636,-5.1158 -2.34669,-2.177 -5.58733,-3.2656 -3.1289,-1.0884 -7.59875,-1.0884 v -4.0274 h 59.00211 v 4.0274 h -4.02287 q -6.36956,0 -9.27497,2.6124 -2.79364,2.5035 -2.79364,7.075 0,5.5514 5.02857,19.3751 l 29.05407,80.2212 28.83058,-81.3098 q 4.91685,-13.7148 4.91685,-18.7219 0,-5.1158 -4.69335,-7.1839 -4.69335,-2.0681 -12.06862,-2.0681 v -4.0274 z m -209.23564,232.0336 c -1.61982,-0.1985 -2.15037,-0.4655 -2.0752,-5.8244 0.0948,-6.7559 -1.70319,-5.2419 9.78688,-5.4393 6.56271,-0.1127 71.22234,0.5197 196.88302,0.3374 l 187.12769,-0.2715 -0.01,4.5026 c -0.011,5.1439 -0.2293,5.6232 -2.8375,6.2311 -1.8131,0.4226 -385.45571,0.8805 -388.8752,0.4641 z m 833.04632,-0.1349 -396.71703,-0.2976 -0.1857,-4.2448 c -0.1021,-2.3346 0.1215,-4.777 0.4969,-5.4275 0.6825,-1.1826 0.6825,-1.1826 422.40113,-1.1826 h 421.7189 l -0.01,4.9382 c 0,2.4999 -0.045,4.5095 -0.064,5.8242 -0.011,0.7811 -8.5096,0.6313 -26.8812,0.6835 -13.2239,0 -202.5661,-0.1298 -420.7606,-0.2934 z m 551.9558,0.1675 -52.2944,-0.1784 -0.2216,-2.5722 c 0.017,-1.3223 0.06,-3.7535 -0.01,-5.4736 l 0.2122,-2.9013 145.6303,-0.3905 c 143.8442,-0.3857 207.9909,-0.7427 236.158,-0.1252 11.7649,0.2579 19.4234,1.0025 19.4184,1.4682 -0.044,4.0951 -0.1273,7.6944 -0.1273,8.9764 0,0.4914 -20.3543,0.764 -89.1641,0.8902 -47.5518,0.087 -113.6489,0.2321 -146.8828,0.3218 -33.2337,0.09 -83.9574,0.083 -112.7193,-0.015 z M 338.62212,1404.981 l 0.007,-5.371 c 0.014,-10.7684 -5.6555,-9.5399 46.09097,-9.9866 17.87502,0.4778 68.98002,-0.2484 71.28297,-13.5738 2.68023,-19.8412 15.6803,-31.7301 31.62526,-28.9222 l 4.42907,0.78 4.26856,-12.0394 c 10.70944,-30.2058 13.03577,-41.8413 15.31139,-76.5823 2.13833,-32.6449 2.42811,-45.1664 2.35593,-101.8018 -0.0827,-64.9328 -0.38766,-60.0767 3.57966,-57.0115 3.42679,2.6476 11.61909,7.8083 11.93301,7.5171 0.11743,-0.1088 -3.77417,-6.7738 -8.64798,-14.8109 -20.58919,-33.9524 -24.33138,-50.5648 -18.42585,-81.7962 3.00398,-15.88674 3.06,-16.88144 0.99167,-17.61064 -2.28274,-0.8049 -1.96501,-5.79564 0.90991,-14.29304 2.7316,-8.0738 2.60363,-8.2632 -2.44424,-3.6179 -5.09055,4.6845 -5.80488,4.4193 -4.16272,-1.5457 1.01294,-3.6793 6.3232,-14.3758 9.45674,-19.0486 1.62806,-2.4278 1.62806,-2.4278 -6.11628,1.3053 -4.2594,2.0532 -7.97612,3.7399 -8.25938,3.748 -0.94834,0.028 2.34965,-4.823 10.48589,-15.4216 15.95215,-20.7801 16.53166,-23.7801 8.73639,-45.2256 -3.91714,-10.7764 -5.10372,-15.9678 -5.10372,-22.3292 0,-3.7113 -0.33225,-4.4028 -1.61344,-3.358 -5.00014,4.0777 -6.81041,3.7554 -6.42946,-1.1445 0.26202,-3.3704 4.36874,-21.3489 4.87657,-21.3489 0.003,0 -2.42905,0.086 -5.40482,0.1906 l -5.41051,0.1906 2.63895,-4.8673 c 1.62237,-2.9923 3.34492,-7.5353 4.4716,-11.7933 1.12754,-4.2612 3.27045,-9.9117 5.56969,-14.6862 6.49447,-13.4862 7.16323,-18.8601 3.59439,-28.8833 -2.76958,-7.7784 -2.89004,-10.9675 -0.47451,-12.5625 3.13949,-2.0731 2.63606,-3.7843 -3.50033,-11.8979 -6.30302,-8.3339 -6.87521,-12.7746 -3.80378,-29.5209 0.88784,-4.8407 2.34634,-15.3202 3.24112,-23.2877 8.12748,-72.37046 31.95709,-73.82123 61.00422,-3.7139 l 4.37135,10.5505 7.12686,0.7369 c 3.91977,0.4052 10.00195,1.3726 13.51596,2.1496 6.3891,1.4129 6.3891,1.4129 12.0836,0.071 3.13198,-0.738 8.82649,-1.6509 12.65445,-2.0287 8.48758,-0.8377 6.83566,0.9736 13.98847,-15.3382 29.7261,-67.79001 50.64322,-63.60096 60.34122,12.0845 0.7029,5.4861 1.967,13.2829 2.8091,17.3263 3.244,15.5765 2.9797,17.9913 -3.0797,28.147 -5.756,9.647 -6.1764,11.2381 -3.6163,13.6875 2.7145,2.5972 2.6249,4.6871 -0.5934,13.8386 -3.9008,11.0921 -3.7807,11.6047 7.9796,34.083 12.2318,23.3794 12.836,25.6491 7.3232,27.5131 -2.116,0.7155 -3.8473,1.4853 -3.8473,1.7107 0,0.2254 0.8573,3.1816 1.9051,6.5694 3.2758,10.5917 3.1135,14.0809 -0.6551,14.0809 -3.096,0 -4.328,1.2013 -4.745,4.6268 -0.2206,1.8119 -0.9469,6.4628 -1.6141,10.3354 -2.6681,15.4866 -0.8005,18.9936 15.2326,28.6024 11.0801,6.6404 13.3747,9.4223 10.44,12.6567 -2.5161,2.7728 -2.1779,4.0663 3.3526,12.8245 6.2415,9.8844 8.4234,18.0018 7.1753,26.6951 -0.855,5.9553 -2.3262,3.4634 14.9436,25.31084 33.7634,42.71294 45.97,67.03754 72.0488,143.57404 4.0135,11.7791 10.665,31.0539 14.781,42.833 23.2044,66.4055 26.587,91.933 16.7052,126.0677 -0.8741,3.0195 -1.4464,5.6223 -1.2718,5.7842 0.9943,0.9222 9.0603,-4.8172 16.0515,-11.4211 4.2629,-4.0269 7.7508,-6.9344 7.7508,-6.4612 0,1.1276 -6.1682,12.5988 -9.3901,17.4632 -3.2756,4.9454 -3.3957,4.9497 5.7778,-0.2075 9.1326,-5.1343 11.6019,-6.0044 10.8784,-3.833 -0.896,2.6889 -2.105,4.3623 -5.993,8.2945 -2.1539,2.1782 -3.7438,3.9605 -3.5332,3.9605 1.2712,0 14.5929,-6.7722 17.7618,-9.0293 12.2443,-8.7213 18.4691,-21.7615 19.1212,-40.0572 0.5836,-16.369 -0.1476,-17.339 -3.0258,-4.0147 -2.5983,12.0283 -5.771,21.3947 -9.1428,26.9907 -1.9946,3.3105 -5.3708,7.892 -5.3708,7.2883 0,-0.1508 0.7133,-2.8819 1.5851,-6.0692 3.4626,-12.6577 4.3008,-26.3237 2.4966,-40.703 -1.7841,-14.2193 -2.8828,-11.3469 -4.1055,10.733 -0.3833,6.9228 -1.1561,14.0396 -1.8846,17.3548 -1.866,8.4927 -5.7098,16.6729 -4.8033,10.2226 1.1238,-7.9974 1.1693,-13.1929 0.1624,-18.5554 -0.5681,-3.0258 -1.8924,-11.1244 -2.9429,-17.9967 -1.9371,-12.6725 -3.1862,-18.6232 -7.2306,-34.4451 -7.2493,-28.3592 -8.488,-53.1011 -2.6587,-53.1011 1.1811,0 7.5653,3.921 12.4215,7.629 24.9445,19.0461 36.8073,36.3848 44.3181,64.7751 1.0158,3.8396 2.0226,7.14 2.2374,7.3344 0.2146,0.1943 0.2912,-4.2015 0.17,-9.7684 -0.2473,-11.3626 -0.1094,-11.7275 2.3291,-6.1607 5.4956,12.5453 6.6553,22.9567 4.4256,39.7309 -1.1969,9.0051 -1.27,8.8799 2.5932,4.4479 l 3.0862,-3.5407 0.1855,3.7462 c 0.46,9.2907 -4.5565,22.8283 -12.8516,34.6807 -0.7975,1.1394 -0.901,1.5307 -0.2938,1.1095 6.1448,-4.2624 10.7454,-7.2533 10.7454,-6.9855 0,4.4081 -12.2352,19.6371 -22.4215,27.9078 -7.103,5.7672 -7.0788,5.6289 -0.6119,3.5067 20.157,-6.6148 13.5121,2.9431 -9.232,13.2788 -15.1407,6.8805 -14.8252,6.5528 -6.2222,6.4624 22.3443,-0.2351 1.0575,9.4813 -28.1064,12.8292 -3.8659,0.4438 -3.8501,1.4205 0.055,3.3914 5.8788,2.9671 9.4846,3.3994 32.6886,3.919 26.8274,0.6006 31.325,1.469 34.0358,6.5722 1.7898,3.3692 5.2345,3.7256 34.53929,3.5741 13.3563,-0.069 24.4019,-0.2348 24.5456,-0.3681 0.1438,-0.1332 0.48,-5.8855 0.7472,-12.7829 0.72268,-18.6536 5.06734,-24.0763 25.78434,-32.1816 5.4299,-2.1244 5.5871,-2.3001 7.7836,-8.6977 4.976,-14.4935 9.5123,-40.3585 8.7687,-49.9965 -0.8985,-11.645 -15.6919,-23.4317 -77.32854,-61.6115 -40.25229,-24.9336 -57.59789,-40.8023 -70.85579,-64.8228 -26.4469,-47.9161 -7.5733,-100.1446 42.1923,-116.7584 6.0529,-2.0206 6.4055,-0.9177 -3.3751,-10.5598 -14.4883,-14.2831 -14.4999,-14.3092 -14.4975,-32.43904 0.48538,-13.03931 2.17415,-31.75804 5.488,-41.34744 2.9588,-8.3738 2.9588,-8.3738 3.3804,-27.7366 0.5975,-27.4492 1.7396,-31.3332 17.9067,-60.9044 10.22449,-18.7016 12.45149,-24.2649 15.96019,-39.8716 11.1733,-49.6982 19.6916,-60.1843 66.33824,-81.6621 10.826,-4.9846 28.2254,-13.465 38.6653,-18.8453 26.7552,-13.7883 43.6175,-21.6336 57.8942,-26.93537 17.6934,-6.57064 19.8321,-7.62898 19.4045,-9.6022 -0.1876,-0.86591 -0.9707,-7.02046 -1.7401,-13.67679 l -1.3989,-12.10241 -4.7213,-2.8598 c -18.1543,-10.99643 -25.9187,-34.67352 -17.2976,-52.74716 0.9979,-2.09196 2.0312,-2.94954 6.4758,-5.37421 l 5.2885,-2.88506 -0.06,-8.18552 c -0.039,-5.44814 -0.556,-11.12883 -1.5445,-16.98682 -8.16,-48.35645 21.4627,-80.77036 70.4909,-77.13276 9.2884,0.68914 16.1271,0.45481 27.8793,-0.95528 9.1782,-1.10126 12.5258,-1.04795 21.5528,0.34323 4.1759,0.64358 7.66,1.1709 7.7423,1.17182 0.082,0.002 0.5439,0.85981 1.0258,1.90864 1.6242,3.53571 3.4486,4.50723 10.6971,5.69636 11.8115,1.93774 14.1853,4.30333 15.3325,15.28006 0.2192,2.09764 1.0855,7.51045 1.9252,12.02845 2.9849,16.06073 3.1866,21.12309 1.1812,29.6386 -0.2589,1.09904 0.2383,2.18564 1.9526,4.26778 2.3362,2.83735 2.473,9.94632 0.3974,20.66167 -0.3644,1.88161 -0.1564,2.87061 1.0489,4.98741 1.2119,2.12865 1.4293,3.17398 1.1212,5.39348 -0.3632,2.61695 -0.2219,2.95664 2.8563,6.8691 10.5241,13.37591 4.077,45.99481 -10.6396,53.8316 -8.8429,4.70894 -10.2761,6.97393 -13.0746,20.66344 -2.592,12.67892 -1.2355,13.94486 24.6224,22.97924 12.0749,4.2188 27.0129,10.7259 43.9889,19.1619 7.8219,3.887 20.1635,10.0255 27.4259,13.6411 7.2624,3.6156 18.6514,8.8253 25.3089,11.577 40.6596,16.8057 56.5341,36.4158 67.1342,82.9315 2.5193,11.055 4.4231,16.3897 9.5279,26.6973 2.5571,5.1634 5.6735,11.8964 6.9253,14.9622 1.2518,3.0658 4.8196,10.3268 7.9283,16.1357 7.6343,14.2651 7.6625,14.4086 8.8421,45.18 0.6112,15.9445 0.88,17.5812 5.926,36.0853 8.4874,31.12438 6.7699,39.49148 -11.7551,57.26548 -11.7824,11.3049 -11.9568,10.1844 2.7883,17.9101 22.4505,11.763 38.4639,29.63 43.8347,48.9089 2.9556,10.6095 3.64,33.2789 1.1605,38.4463 -0.6968,1.4522 -2.294,5.9955 -3.5494,10.0962 -3.094,10.1065 -4.6426,12.6526 -14.795,24.3244 -25.7613,29.6168 -39.9055,41.0297 -79.0811,63.8105 -18.2801,10.6299 -25.1722,15.5608 -39.6074,28.336 -21.2524,18.8085 -22.4025,21.2977 -19.7743,42.7958 3.7254,30.4722 7.075,37.2555 21.8542,44.2562 13.6213,6.4522 16.4336,11.5391 17.7662,32.1351 0.7447,11.5074 -0.4372,10.0349 7.5427,9.3972 3.654,-0.2919 27.1438,-0.471 52.1996,-0.398 50.7923,0.1481 48.4032,0.3174 48.4032,-3.4276 0,-11.4139 6.2157,-22.15 17.7832,-30.7166 l 6.0776,-4.501 -3.3982,-5.2256 c -16.0178,-24.6312 -19.6783,-56.2431 -11.2043,-96.7591 1.2149,-5.8088 2.4817,-13.824 2.8149,-17.8114 2.2404,-26.8041 14.6805,-44.223 40.1265,-56.1858 4.524,-2.1269 8.3002,-3.9316 8.3917,-4.0104 0.091,-0.079 -0.7138,-4.3426 -1.7894,-9.475 -1.5855,-7.5661 -1.9032,-10.3549 -1.6791,-14.74 0.238,-4.6559 0.1007,-5.6763 -0.987,-7.3344 -0.9102,-1.3876 -1.3991,-3.5667 -1.7484,-7.7937 -0.2667,-3.2271 -1.224,-9.5156 -2.1273,-13.9744 -1.9896,-9.821 -2.0856,-16.1266 -0.3769,-24.7513 2.4556,-12.3945 1.6635,-17.4554 -5.0511,-32.2714 -11.6248,-25.6507 -13.6591,-38.3728 -9.8043,-61.31574 0.8403,-5.0021 1.9716,-13.18734 2.514,-18.18944 2.1719,-20.0328 4.1361,-28.4922 8.3374,-35.9063 2.2507,-3.9718 2.2507,-3.9718 -1.6809,-9.5999 -16.4483,-23.5462 -14.5443,-53.5498 5.2268,-82.3661 6.8478,-9.9805 6.9956,-10.4387 7.4919,-23.2167 0.238,-6.1315 0.7504,-13.2606 1.1385,-15.8423 0.9192,-6.1134 0.7719,-6.6615 -4.5623,-16.982 -6.8179,-13.1913 -6.7021,-15.5327 1.9028,-38.4662 8.7156,-23.2288 9.5618,-25.8701 10.6252,-33.1656 0.5632,-3.8649 1.4431,-8.9 1.9551,-11.1892 0.9308,-4.1622 0.9308,-4.1622 -2.5553,-10.46758 -9.4744,-17.13607 -11.7756,-31.69415 -7.6116,-48.15282 3.6783,-14.53904 4.1374,-17.75301 4.7354,-33.15156 2.7883,-71.80325 36.8556,-96.8176 64.7275,-47.52702 5.7692,10.20259 21.8913,50.81387 23.2289,58.51282 1.1382,6.55167 2.2044,8.66437 4.9074,9.72487 6.037,2.3685 13.0826,3.34621 24.1137,3.34621 h 8.2304 l 2.6987,-4.81044 c 2.5336,-4.51597 2.7025,-5.1176 2.7606,-9.82812 0.082,-6.67286 4.2506,-19.07333 14.2319,-42.33728 23.9453,-55.8111 60.3307,-54.61167 67.3663,2.22071 0.5964,4.81754 1.3241,7.94588 2.2325,9.59706 1.1651,2.11783 1.4667,4.32914 2.2261,16.32279 1.2566,19.84318 1.5612,21.49667 5.5916,30.3487 5.9998,13.17752 4.7648,29.50312 -3.725,49.24074 -8.3298,19.36572 -7.5412,27.96412 5.0932,55.53332 11.376,24.8235 11.8299,29.6015 4.1597,43.791 -6.5794,12.1715 -7.9468,21.0988 -4.2414,27.6925 1.6901,3.0075 1.7798,3.5148 1.4102,7.9741 -0.5661,6.8282 0.4334,9.3533 7.5374,19.0443 10.8576,14.8116 14.4773,26.6963 14.3815,47.2212 -0.079,16.8734 -1.6086,24.0904 -6.6112,31.1873 -6.1954,8.7891 -6.3138,10.3799 -1.749,23.5006 2.6477,7.6104 3.1391,9.6772 2.8248,11.881 -0.2345,1.6439 -0.01,3.963 0.591,6.0418 0.5343,1.8556 1.3766,4.8028 1.8715,6.5493 0.495,1.7466 1.2212,5.7731 1.6139,8.948 0.3926,3.1749 1.3019,9.73314 2.0208,14.57388 3.0753,20.7097 0.7371,33.9505 -9.5648,54.1665 -8.0676,15.8311 -8.8901,21.4261 -5.8383,39.714 1.8327,10.9827 1.8355,16.8252 0.01,19.2036 -1.0704,1.394 -1.6782,3.9057 -2.7909,11.5323 -0.7823,5.3625 -2.729,16.9639 -4.3261,25.7807 -3.9886,22.0211 -4.3693,19.9431 4.165,22.7399 30.5648,10.017 37.8656,20.8368 45.1046,66.8452 5.8659,37.281 5.3462,52.6121 -2.5255,74.5176 -4.0355,11.2302 -4.508,13.1222 -3.3511,13.4183 50.3187,12.8812 91.7114,-6.0321 116.0462,-53.0242 28.5357,-55.1041 37.3101,-59.1386 51.0429,-23.4701 21.4353,55.6743 9.9999,99.3986 -33.3761,127.6169 -10.4854,6.8212 -12.2615,8.6247 -10.1183,10.2743 0.769,0.5917 1.6605,0.5528 4.5872,-0.2004 4.917,-1.2653 13.4753,-1.3722 58.838,-0.7354 l 34.6901,0.5351 v 7.386 7.386 c 0,0 -560.941,-0.012 -841.4114,0.189 -282.51814,0.2028 -565.05069,3.9277 -847.55402,1.0267 -15.8665,-0.1629 -31.4653,-0.021 -47.59076,-1.0352 z m 965.36828,-16.4629 c -0.1727,-0.7261 -0.7778,-2.9026 -1.3446,-4.8365 -1.7609,-6.0072 -2.3965,-15.5346 -1.6843,-25.245 0.3547,-4.835 0.6492,-9.2156 0.6546,-9.7347 0.01,-0.5191 -1.6274,-1.9437 -3.6284,-3.1661 -48.8241,-29.8241 -46.2551,-49.4155 15.3491,-117.0547 14.8097,-16.2605 18.15,-20.2449 28.7768,-34.3251 22.9185,-30.3664 31.0175,-36.2312 59.1661,-42.8444 10.4401,-2.4528 10.7522,-3.9818 1.1964,-5.8592 -6.1876,-1.2157 -7.4498,-1.123 -16.0791,1.1803 -17.7973,4.7505 -25.8418,10.0074 -37.7891,24.6947 -10.2837,12.6424 -20.679,17.7714 -43.1857,21.308 -23.9087,3.7569 -57.926,3.0618 -74.5487,-1.5233 -20.6249,-5.689 -22.9698,-5.6997 -57.0577,-0.2604 -36.3251,5.7963 -66.2811,4.9237 -90.9444,-2.6493 -12.4943,-3.8363 -16.1629,-6.2507 -24.9692,-16.433 -16.9224,-19.5662 -32.1617,-27.1726 -50.9255,-25.4184 -16.88854,1.5789 -16.00784,5.4173 2.0149,8.7821 21.0513,3.9302 37.9958,16.6241 63.0581,47.2398 9.4384,11.5296 14.817,17.6113 26.2035,29.629 36.5395,38.5646 46.0842,54.252 46.1282,75.8152 0.012,6.2852 0.012,6.2852 -2.8894,9.0947 -1.5963,1.5452 -6.7965,6.9496 -11.556,12.0098 -7.8985,8.3973 -14.4586,14.0555 -20.8269,17.9637 -2.4026,1.4744 -2.4026,1.4744 -1.9346,5.0512 0.2575,1.9672 0.4591,8.8575 0.4481,15.3118 -0.021,12.1664 0.041,11.759 -3.1926,20.9724 -0.3948,1.1248 -1.9603,1.1086 143.33,1.475 56.5444,0.1426 56.5444,0.1426 56.2304,-1.1776 z m 593.502,0.9504 c 2.6654,-0.6625 1.7101,-2.7345 -4.1128,-8.9199 -3.0449,-3.2345 -6.0748,-6.7301 -6.733,-7.7679 -1.4511,-2.2881 -1.7687,-2.3164 9.2201,0.8205 6.8162,1.9457 10.1104,2.6157 23.2964,4.7381 3.055,0.4917 6.0978,0.6034 8.5418,0.3133 2.0879,-0.2477 7.6906,-0.4726 12.4504,-0.4998 14.12,-0.081 22.1556,-1.5571 31.2074,-5.7335 15.2354,-7.0292 29.4255,-24.9098 15.7391,-19.8322 -4.6576,1.728 -9.1939,1.6436 -11.6718,-0.2171 -3.0944,-2.3237 0.4893,-5.3265 12.9359,-10.8389 23.0908,-10.2266 29.8567,-29.1578 21.9499,-61.4157 -5.2738,-21.5158 -8.5685,-26.3794 -12.4245,-18.3409 -1.3558,2.8264 -5.1355,8.8356 -8.3993,13.3535 -3.2639,4.518 -9.4649,13.6793 -13.7803,20.3585 -20.5239,31.7665 -33.2657,41.1829 -68.2539,50.4409 -10.6556,2.8195 -46.33,1.6084 -50.906,-1.7283 -2.0896,-1.5236 -12.2116,-1.6008 -13.493,-0.1029 -3.9692,4.6396 -3.7511,5.7145 1.7199,8.4801 14.578,7.3691 19.461,13.601 19.2127,24.5198 -0.2216,9.7356 1.0854,10.6706 14.9938,10.7271 7.2951,0.03 10.0033,0.2562 11.7054,0.979 2.39,1.0149 4.5482,1.2263 6.8018,0.6663 z m -350.3701,-2.517 c 4.2001,-2.7578 8.0917,-22.9303 4.4236,-22.9303 -1.0261,0 -7.0189,2.8896 -9.3331,4.5002 -9.5588,6.6527 -4.7348,24.7623 4.9095,18.4301 z m 24.6727,0.5398 c 2.7877,0 6.7245,-23.5033 4.0937,-24.4395 -2.8887,-1.0279 -13.1084,3.0912 -15.3057,6.1691 -4.7978,6.7203 1.9084,20.1653 9.2108,18.4664 0.4635,-0.1078 1.364,-0.196 2.0012,-0.196 z m 222.1228,-0.6484 c 8.6444,-1.7191 6.3145,-20.5467 -2.7005,-21.822 -8.1957,-1.1594 -9.0412,-0.3519 -9.0065,8.6021 0.051,12.9878 1.9707,15.1564 11.707,13.2199 z m -129.8775,-1.251 c 0.605,-0.4656 0.783,-1.5023 0.5748,-3.3481 -0.1659,-1.4705 0.1518,-4.8463 0.7057,-7.5016 1.6347,-7.8355 -0.2995,-10.1253 -8.674,-10.2694 -12.3178,-0.2117 -12.9451,19.5335 -0.6963,21.9159 2.7126,0.5276 6.9056,0.1146 8.0898,-0.7968 z m 73.5226,0.2849 c 5.368,-2.4967 5.5711,-21.1977 0.2404,-22.1251 -8.0363,-1.398 -15.4172,4.2386 -16.4835,12.5882 -1.0025,7.8491 8.2244,13.2664 16.2431,9.5369 z m 31.0578,0.094 c 3.4554,-0.8774 4.3594,-6.276 2.7175,-16.2288 l -1.0405,-6.3076 h -8.4863 c -10.0349,0 -10.481,0.3978 -10.525,9.388 -0.06,12.3176 5.1234,16.2495 17.3343,13.1484 z m 78.3209,0.026 c 4.393,-0.7815 4.3246,-10.2305 -0.1132,-15.6259 -2.7184,-3.3051 -12.4501,-7.3655 -12.4501,-5.1944 0,0.3843 -0.3211,3.2232 -0.7135,6.3088 -1.1635,9.1487 0.6336,13.6762 5.8922,14.8448 2.0032,0.4452 3.3494,0.3844 7.3846,-0.3333 z M 1604.7,1382.5046 c 2.3025,-4.2705 2.3556,-13.3113 0.088,-15.0141 -5.6624,-4.252 -12.7276,1.3421 -12.739,10.0866 -0.01,7.4799 9.3162,11.1124 12.6509,4.9275 z m 28.9757,2.1179 c 1.0255,-0.509 1.3447,-1.6909 1.9524,-7.2307 0.3995,-3.6423 0.8781,-7.9563 1.0635,-9.5868 0.4803,-4.2247 -0.7931,-5.1798 -7.2697,-5.4526 -8.0051,-0.3371 -11.1128,1.8142 -11.6315,8.0519 -0.2117,2.5458 -0.9254,5.9477 -1.5859,7.5598 -1.2871,3.1413 -1.1251,3.8982 1.3945,6.517 1.4469,1.5039 13.1246,1.6065 16.0767,0.1414 z m 192.0747,-0.6299 c 0.3896,-0.3612 0.7711,-2.6483 0.848,-5.0824 0.077,-2.434 0.7293,-6.4188 1.4501,-8.855 1.6258,-5.4956 2.2123,-5.1167 -8.2737,-5.3443 -10.2005,-0.2212 -9.5161,-0.8247 -7.5758,6.6798 3.2429,12.5432 8.4217,17.3591 13.5514,12.6019 z m -1277.3672,-10.583 c 7.51545,-21.7055 16.91834,-28.3666 42.43119,-30.0585 l 10.17588,-0.6749 4.6931,-8.1794 c 2.58121,-4.4988 5.75276,-9.6636 7.04792,-11.4773 2.95712,-4.1414 3.03117,-3.6334 -1.15162,-7.8996 -34.831,-35.5251 -35.23666,-97.6766 -0.74382,-113.9615 10.76296,-5.0814 7.34669,-16.7975 -11.98857,-41.1148 -7.83818,-9.8578 -9.40707,-12.0714 -13.24981,-18.695 -2.90912,-5.0143 -3.31045,-4.9021 -1.79279,0.5012 1.51224,5.3842 4.11458,10.5288 10.65845,21.0709 6.86001,11.0513 6.89219,11.1221 4.04979,8.9099 -9.40267,-7.3179 -24.03222,-28.99 -30.28063,-44.8574 l -1.50186,-3.8139 -0.47992,4.1073 c -0.26397,2.259 -0.56786,4.5033 -0.67533,4.9873 -0.60733,2.7356 -6.79252,-11.2754 -15.36556,-34.8067 -10.57347,-29.0222 -13.00114,-32.257 -11.56152,-15.4055 2.14093,25.0605 13.04658,50.6625 31.05897,72.9137 10.5506,13.0333 9.61598,11.2067 8.11252,15.8549 -2.08205,6.437 -3.58707,14.2091 -5.71383,29.5071 -1.09918,7.9064 -2.97725,19.6562 -4.17351,26.1105 -10.75104,58.0063 -11.61719,64.0773 -10.41999,73.0358 1.96812,14.7271 2.01361,14.4441 -3.29486,20.4922 -6.32135,7.2019 -10.07495,13.5551 -12.8372,21.7276 -6.36592,18.8344 -7.97116,23.1975 -10.99509,29.8853 -1.80394,3.9897 -3.09861,7.4222 -2.87705,7.6277 0.28607,0.2656 13.62548,0.9607 18.43475,0.9607 0.0572,0 1.1554,-3.0364 2.44039,-6.7476 z m 79.28882,4.1566 c 2.78489,-1.3175 4.66974,-4.2743 7.69915,-12.0778 5.30787,-13.6726 12.93539,-13.8027 8.85595,-0.151 -2.50901,8.3962 -1.50578,12.0133 3.17071,11.4315 8.94193,-1.1122 10.74285,-6.6744 11.3463,-35.0439 0.51314,-24.1235 0.72579,-25.2305 4.8472,-25.2305 2.89297,0 5.65134,-1.8466 9.11734,-6.1037 3.0946,-3.801 3.1437,-4.7801 0.9455,-18.8333 -3.5016,-22.3857 -2.7311,-33.6243 5.3505,-78.0382 4.4929,-24.6915 4.8067,-26.7152 6.0188,-38.8134 1.9678,-19.6399 6.6876,-31.9432 6.6446,-17.3202 -0.01,2.4746 -0.4255,7.6678 -0.9293,11.5403 -0.9901,7.6099 -1.2881,24.9371 -0.4289,24.9371 0.924,0 4.477,-11.6107 7.721,-25.2304 1.7295,-7.2611 4.0684,-15.9744 5.1976,-19.3628 2.1157,-6.3488 2.7266,-12.9804 1.5235,-16.538 -0.4859,-1.4368 -0.2488,-1.7649 2.6925,-3.7245 4.9902,-3.3247 5.0419,-5.2991 0.3095,-11.8156 -9.188,-12.6519 -15.2337,-28.7528 -15.8807,-42.293 -0.4441,-9.2953 -0.2597,-9.4554 2.3655,-2.0536 2.6194,7.3853 2.6909,7.4247 4.2964,2.3716 3.1937,-10.0515 3.3053,-19.7685 0.4534,-39.4838 -0.887,-6.1315 -1.5879,-11.8084 -1.5576,-12.6151 0.1013,-2.7004 4.3106,6.6779 6.6608,14.8406 7.454,25.8885 9.1596,19.397 3.0706,-11.6864 -1.5546,-7.9363 -2.8266,-14.533 -2.8266,-14.6595 0,-0.7108 1.2357,-0.069 1.5346,0.7969 0.195,0.5648 1.7855,3.2712 3.5345,6.0143 3.1102,4.8778 6.3361,12.9182 7.298,18.1894 0.4807,2.6346 0.4829,2.6365 1.038,0.8801 1.3065,-4.1347 -0.894,-17.4061 -4.2223,-25.4643 -2.974,-7.2008 -3.2901,-8.8608 -1.6868,-8.8608 0.6981,0 1.3614,0.33 1.4739,0.7335 0.3122,1.119 8.3544,12.1473 8.6551,11.8686 0.6509,-0.6037 -1.6415,-8.6562 -5.9261,-20.81674 -5.4932,-15.59064 -8.5032,-27.18004 -6.8066,-26.20764 0.3086,0.1769 2.089,2.6403 3.9564,5.4742 1.8675,2.8339 3.5144,4.8216 3.6598,4.4171 0.3665,-1.0197 -1.4584,-8.6226 -3.7955,-15.812 -2.3801,-7.3219 -1.9792,-7.9005 2.3943,-3.4553 4.1874,4.2563 4.0281,3.3285 -1.5981,-9.303 -4.7685,-10.706 -4.9158,-11.3103 -2.8741,-11.7855 4.2621,-0.992 -12.6538,-18.4323 -17.8781,-18.4323 -0.6503,0 -4.1523,2.5551 -7.7823,5.6779 -15.3862,13.2367 -27.69597,20.9908 -44.1219,27.7932 -6.60744,2.7364 -6.60744,2.7364 -8.44273,6.7259 -5.21636,11.3393 -13.67188,21.4437 -10.3075,12.3174 5.1437,-13.9527 1.69667,-15.8361 -7.79198,-4.2573 -8.41766,10.2719 -10.02225,11.6104 -7.69263,6.4166 4.22067,-9.4099 2.501,-10.928 -9.38213,-8.2823 -5.80241,1.2919 -5.8572,1.321 -7.53195,4.0055 -4.32458,6.9322 -12.67061,17.4705 -13.34255,16.8475 -0.1416,-0.1314 0.48974,-2.4432 1.40299,-5.1374 5.5584,-16.3979 0.17669,-18.2794 -8.71787,-3.0478 -6.00246,10.2791 -7.43045,7.7755 -3.01698,-5.2892 5.93339,-17.5642 -3.03966,-10.0983 -11.04643,9.1908 l -1.50916,3.6357 -0.0242,-3.2271 c -0.0134,-1.775 0.54221,-6.6304 1.23452,-10.7899 1.52147,-9.1413 1.54561,-9.8117 0.33788,-9.3819 -0.95239,0.3389 -6.79349,8.426 -10.54353,14.5976 -3.68348,6.0621 -3.25,-3.1544 0.68158,-14.4919 0.98499,-2.8403 1.55533,-5.1643 1.26743,-5.1643 -0.79374,0 -4.46333,4.4636 -7.71804,9.388 -5.61926,8.5021 -7.43535,8.6588 -8.04814,0.6943 l -0.3437,-4.4673 -2.65756,3.7935 c -5.37228,7.6685 -5.80114,10.5218 -1.92968,12.8384 2.83491,1.6965 3.02498,3.5704 1.39435,13.74904 -2.33959,14.60394 -0.15569,17.29824 3.56126,4.3934 0.77478,-2.6899 2.03782,-6.2109 2.80676,-7.8245 l 1.39807,-2.93384 0.49647,2.92424 c 0.27306,1.6082 0.32354,9.0013 0.11217,16.42914 -0.43726,15.3662 0.0611,20.6091 1.39532,14.6784 4.34468,-19.3126 6.40218,-24.56154 9.23285,-23.55424 1.18108,0.4204 1.30408,6.98884 0.27102,14.47494 -1.38789,10.0575 -0.69232,22.868 1.24167,22.868 1.12006,0 2.91155,-5.4919 5.74199,-17.6026 3.41204,-14.599 4.95051,-15.443 4.48989,-2.463 -0.85446,24.0784 -0.13621,31.8192 3.73393,40.2419 1.32376,2.8809 1.46238,2.0322 2.58508,-15.8288 0.67836,-10.7917 2.06896,-18.7558 4.18279,-23.9549 2.92026,-7.1826 3.71308,-2.8239 3.13343,17.2261 -0.45803,15.8429 6.3e-4,20.8122 2.60573,28.2189 l 1.12776,3.2068 0.45105,-3.8139 c 0.24807,-2.0977 0.89933,-8.0385 1.44722,-13.202 1.4674,-13.829 5.23152,-29.8312 8.55423,-36.3663 1.19568,-2.3516 1.19846,-2.289 0.83415,18.7637 -0.43528,25.1539 -0.39011,25.2033 4.834,5.2808 10.25069,-39.09184 14.31693,-42.31754 11.11124,-8.8146 -0.49336,5.1561 -0.80726,9.458 -0.69755,9.5598 0.10971,0.1018 1.27555,-2.6647 2.59077,-6.1476 7.37526,-19.5312 15.59407,-38.44874 16.3648,-37.66734 0.42882,0.4347 -2.30837,19.59894 -4.39167,30.74794 -0.53152,2.8444 0.86455,0.2189 10.60733,-19.9497 4.83271,-10.00414 9.09267,-18.45338 9.4666,-18.77618 1.00889,-0.8707 0.17192,8.23214 -1.74393,18.96698 -2.62016,14.6811 -2.03763,15.0919 3.37525,2.3806 5.05752,-11.87684 9.59931,-21.47598 11.3002,-23.88328 3.00671,-4.2554 3.43238,3.1164 0.841,14.56424 -3.04263,13.44114 -3.03656,13.23954 -0.28256,9.38804 5.24597,-7.33654 8.97147,-15.64208 13.6203,-30.36458 1.14639,-3.6305 2.32322,-6.601 2.61516,-6.601 1.81514,0 0.0254,20.2698 -2.64664,29.97484 -1.64684,5.98144 -1.69311,5.96714 2.81487,0.8715 4.6013,-5.2009 6.7104,-8.9354 8.2042,-14.52674 4.7168,-17.6548 9.8746,-22.0707 9.8746,-8.4541 0,15.90534 -9.6505,29.16638 -33.87406,46.54748 -15.53738,11.1485 -14.7679,9.0509 -6.51408,17.7578 14.59876,15.4003 25.30214,30.1094 29.59154,40.6662 1.1219,2.7612 -0.048,1.4882 -10.59102,-11.5217 -18.72237,-23.1037 -31.32231,-35.3503 -32.77022,-31.8512 -0.49603,1.1987 0.22437,2.3002 8.90768,13.6201 17.54802,22.8761 38.93176,57.3374 36.80346,59.311 -0.9876,0.9159 -14.57304,-14.13 -23.40816,-25.9245 -9.22001,-12.3083 -12.73072,-16.682 -16.24873,-20.243 l -3.18823,-3.2272 1.86279,3.5206 c 1.02454,1.9363 4.26818,7.3948 7.20812,12.1301 10.44332,16.8206 26.69661,47.9353 25.58051,48.9703 -0.56769,0.5265 -18.04026,-18.7401 -25.90745,-28.5674 -9.16853,-11.453 -9.182,-11.3259 -0.62517,5.8993 10.73048,21.6009 13.75578,30.0698 14.46265,40.486 l 0.37827,5.5742 -6.66227,-12.3218 c -6.21074,-11.4867 -17.53859,-28.7036 -18.01447,-27.3797 -0.11585,0.3223 1.4876,4.6343 3.56322,9.5822 6.28026,14.9709 8.86198,24.189 10.24909,36.5945 1.31082,11.7231 0.83765,11.4781 -5.47332,-2.8345 -1.53614,-3.4838 -3.65725,-7.8404 -4.71359,-9.6815 l -1.92063,-3.3473 0.34355,3.8139 c 1.98816,22.072 1.6769,45.1848 -1.25243,93.0005 -2.46874,40.2972 -2.0942,38.0481 -8.39382,50.4049 -6.31304,12.3831 -6.14006,14.6206 1.77903,23.0127 1.7315,1.835 3.14819,3.5689 3.14819,3.8533 0,2.5189 -10.92519,22.0504 -15.22552,27.2195 -2.7728,3.3328 -3.46095,3.7049 -13.87972,7.504 -7.97634,2.9084 -13.04194,10.2823 -14.88246,21.6641 -1.62396,10.0425 4.82328,8.988 8.22666,-1.3457 3.02107,-9.1728 6.09217,-13.4953 9.58838,-13.4953 2.12509,0 1.96099,1.7056 -0.79878,8.3023 -3.50687,8.3826 -3.19301,12.8408 0.96361,13.6875 4.03366,0.8215 6.31623,-1.3336 9.30755,-8.7879 4.0214,-10.0211 7.47187,-15.0177 11.80623,-17.0963 4.41053,-2.115 4.52703,0.6671 0.44645,10.6617 -5.00543,12.2597 -3.77859,18.2357 3.07783,14.9919 z m 96.41435,-1.7447 c 1.1431,-0.9326 3.7867,-4.5391 5.8747,-8.0148 4.4026,-7.3285 8.0385,-11.3465 11.6246,-12.8461 5.4944,-2.2976 5.5875,-0.4493 0.3678,7.3007 -6.8678,10.1968 -5.2828,18.6127 2.6595,14.1217 1.8387,-1.0397 3.2145,-2.8181 10.4213,-13.4699 l 2.5364,-3.7488 17.5664,0.4239 c 30.1589,0.7278 37.5929,-1.4367 22.6914,-6.6069 -8.8709,-3.0779 -59.3632,-8.3226 -80.1243,-8.3226 -6.0733,0 -12.8251,7.2335 -16.904,18.1102 -5.718,15.2476 1.4118,19.6086 7.9958,4.8906 4.9142,-10.9852 9.37,-15.5805 14.2454,-14.6915 2.7827,0.5074 2.5602,1.9348 -1.4658,9.4009 -6.5072,12.0676 -5.0913,19.654 2.5108,13.4526 z m 916.99523,-25.5232 c 3.4799,0.014 8.0355,0.2161 10.1235,0.45 5.9228,0.6638 5.6633,1.2983 5.9007,-14.4286 0.2537,-16.8002 -0.6631,-29.6371 -2.7775,-38.8946 -0.8846,-3.8726 -2.3393,-10.2096 -3.2327,-14.0822 -1.828,-7.9235 -2.1447,-15.1166 -1.219,-27.6812 0.5696,-7.7317 0.5696,-7.7317 -1.0288,-9.4933 -1.958,-2.1579 -2.6441,-6.417 -2.0678,-12.8373 1.2881,-14.3501 -3.9091,-79.399 -8.5446,-106.9447 -3.1117,-18.4911 -3.5691,-21.6596 -5.4185,-37.5403 -1.157,-9.9344 -0.5299,-8.9192 -6.0417,-9.7805 -6.6392,-1.0373 -8.1601,-2.1652 -5.8871,-4.3655 1.59,-1.539 3.9593,-2.5428 14.1826,-6.009 4.5764,-1.5516 11.4931,-5.5598 24.7425,-14.3382 14.4025,-9.5425 17.0372,-11.0422 18.49,-10.5253 7.1419,2.5415 -19.2404,31.3864 -32.6344,35.6804 -2.7497,0.8815 -2.7771,1.0035 -1.1306,5.0207 0.6828,1.6659 1.8493,6.4186 2.5924,10.5616 6.2737,34.9797 40.6203,71.1709 39.3495,41.4628 -0.4657,-10.8865 4.2585,-37.7846 6.6272,-37.7336 3.8333,0.083 6.3324,8.1882 6.8716,22.2861 0.2159,5.6476 0.7714,11.8589 1.2343,13.8031 0.5577,2.3421 0.7183,5.4516 0.4762,9.2152 -1.7562,27.2991 30.8661,-14.5451 41.2864,-52.9573 1.2038,-4.4372 2.1886,-8.4461 2.1886,-8.9085 0,-0.4624 -3.5033,-3.263 -7.7851,-6.2235 -16.107,-11.1366 -26.3819,-23.0701 -26.3819,-30.6406 0,-3.2424 2.2582,-2.2298 13.3231,5.9742 20.5151,15.2109 25.1577,17.4529 40.5207,19.5682 16.4907,2.2707 17.7486,5.0886 3.118,6.985 -10.2468,1.3281 -9.9139,0.7256 -11.706,21.181 -1.3623,15.5497 -1.4694,16.1065 -3.243,16.8559 -1.4202,0.6001 -1.469,0.8195 -1.0954,4.9182 0.3525,3.8681 0.1666,4.942 -1.8899,10.9143 -2.2809,6.6241 -2.2809,6.6241 -6.1329,56.2047 -2.1187,27.2694 -4.2595,52.2211 -4.7575,55.4482 -0.498,3.2272 -0.9121,8.772 -0.9203,12.3219 -0.01,3.5499 -0.461,8.9626 -1.0064,12.0284 -0.5453,3.0658 -0.9309,7.5545 -0.8567,9.9748 0.2909,9.4949 0.3697,9.1599 -3.9252,16.698 -5.1533,9.045 -5.4876,13.6564 -1.8095,24.9615 3.1258,9.6078 3.1643,16.9179 0.1249,23.7193 -2.79,6.2433 -2.7243,6.2965 7.8594,6.3615 8.5341,0.053 40.098,-0.2472 40.098,-0.3806 0,-0.042 -1.0084,-2.4518 -2.2407,-5.354 -4.8623,-11.4495 -5.6616,-17.9804 -3.7702,-30.8005 0.4999,-3.3885 0.9244,-9.0653 0.943,-12.6152 0.027,-5.1332 0.2906,-6.9788 1.2878,-9.0168 1.0828,-2.2129 1.2506,-3.814 1.2301,-11.7351 -0.022,-8.4961 0.9053,-20.3784 2.5932,-33.2294 2.8771,-18.0897 7.1608,-41.9123 8.4903,-54.8614 1.1685,-11.4916 5.6807,-38.9984 9.2061,-56.1201 4.4143,-21.4399 5.4279,-34.0457 3.7404,-46.5255 -1.1445,-8.4648 -2.1099,-8.5938 -7.6815,-1.0258 -3.6112,4.9052 -6.9668,6.6542 -9.0536,4.719 -2.1932,-2.0338 2.3303,-10.7082 13.7416,-26.3512 12.1418,-16.6444 12.1954,-16.7452 14.6987,-27.6266 5.4047,-23.4937 5.0412,-46.98914 -0.9638,-62.28378 -0.6698,-1.7063 -1.2184,-4.0826 -1.219,-5.2808 0,-6.9443 -3.7469,-8.006 -8.715,-2.4717 -12.4653,13.8859 -28.266,25.43234 -32.6621,23.86794 -4.7382,-1.686 -0.6574,-9.19884 13.6018,-25.04144 13.3883,-14.8748 26.754,-35.9558 29.6794,-46.8119 0.6611,-2.4535 1.8076,-5.2204 2.5478,-6.1487 0.7625,-0.9564 1.1758,-2.0985 0.9537,-2.6352 -0.2156,-0.521 -0.6718,-6.6147 -1.0138,-13.5416 -0.7956,-16.1106 -2.692,-24.3683 -8.1752,-35.598 -4.4119,-9.0358 -4.9699,-8.5673 -14.7197,12.357 -3.334,7.1552 -6.1273,10.6606 -17.9305,22.5013 -7.5784,7.6027 -9.8052,10.909 -12.8912,19.141 -8.083,21.5615 -33.234,46.104 -48.2816,47.1133 -9.3753,0.6289 -5.7906,-5.7343 8.1076,-14.3918 12.0815,-7.5258 21.1404,-18.2857 30.9197,-36.7251 6.9991,-13.1972 9.687,-17.128 15.9778,-23.3661 2.5514,-2.53 4.639,-5.0149 4.639,-5.522 0,-0.5071 2.4111,-5.2441 5.3579,-10.5268 8.8214,-15.8134 13.461,-30.4425 14.0977,-44.4521 0.4704,-10.3498 -0.7454,-10.4162 -13.1992,-0.7204 -19.4549,15.1463 -26.2762,11.0976 -9.2524,-5.4916 36.5823,-35.6481 36.7718,-36.2459 21.7887,-68.7595 -8.4347,-18.3037 -10.6835,-24.6928 -10.6974,-30.3942 -0.01,-4.0701 -0.1309,-4.4249 -2.4225,-7.1135 -1.3266,-1.5563 -4.4647,-6.3616 -6.9735,-10.6784 -23.2444,-39.99532 -50.0559,-57.90294 -66.0109,-44.08933 -8.97,7.76607 -11.627,8.24635 -14.8038,2.67591 -7.1739,-12.57951 -23.9008,-9.45145 -47.451,8.87367 -20.58,16.01402 -29.4381,29.92867 -37.1264,58.31985 -3.6525,13.4878 -5.3871,18.5399 -9.2041,26.8067 -11.8006,25.5577 -10.3011,30.0094 20.3607,60.4446 8.0377,7.9782 15.6243,16.9835 14.8852,17.6688 -1.2447,1.1542 -23.2029,-9.2302 -30.5259,-14.4364 -6.8549,-4.8733 -6.3664,-6.1743 -3.43,9.135 4.6061,24.0146 12.5826,42.7954 24.8971,58.6207 3.8457,4.942 7.4318,10.6522 12.0293,19.154 10.2347,18.9264 22.1798,32.1615 36.2453,40.1596 17.3853,9.8859 17.863,20.9585 0.5439,12.607 -20.0156,-9.6519 -33.4054,-23.4405 -42.4443,-43.7088 -6.5361,-14.656 -7.195,-15.6088 -17.6803,-25.5657 -10.9575,-10.4054 -13.0039,-13.2345 -18.6193,-25.741 -3.7511,-8.3541 -4.261,-9.3066 -4.7296,-8.8342 -8.8282,8.9002 -14.8446,24.9076 -13.0893,34.826 0.2893,1.6347 0.2276,5.7404 -0.1414,9.4233 -1.0207,10.1845 0.2369,14.9738 9.1674,34.9135 2.8274,6.3129 4.7221,9.2419 9.2942,14.3679 1.4505,1.6262 3.1006,4.3631 3.7144,6.1608 0.9737,2.8519 1.4532,3.4092 4.0516,4.7086 5.1562,2.5784 12.9593,12.203 18.4183,22.7177 2.9239,5.63194 2.8068,6.61304 -0.789,6.61304 -5.6937,0 -10.684,-3.77364 -28.1692,-21.30094 -6.4309,-6.4464 -7.7525,-6.9503 -9.4629,-3.6077 -5.4546,10.6596 -9.0027,47.64368 -5.8643,61.12748 5.3335,22.9141 13.1867,38.1383 29.382,56.9593 7.5964,8.828 8.2461,10.255 4.8101,10.5646 -2.4434,0.2201 -5.8922,-1.3481 -9.6904,-4.4066 -7.081,-5.7019 -8.3966,-5.9854 -10.2031,-2.1984 -4.0418,8.4733 -2.6529,24.4482 5.0762,58.3854 7.7936,34.2209 15.6087,93.9614 18.4557,141.0808 0.3706,6.1316 1.3668,15.767 2.2141,21.4122 2.6327,17.5398 1.3472,28.7696 -3.913,34.1844 -5.3769,5.5349 -1.1176,7.683 13.9954,7.0584 5.5679,-0.2301 12.9708,-0.4073 16.4508,-0.3937 z m 19.6143,-339.4661 c -17.1003,-3.8778 -38.9124,-29.73268 -38.9124,-46.12488 0,-13.1658 2.9686,-11.8525 13.045,5.7708 5.316,9.2976 6.9617,11.259 19.5515,23.30194 13.3243,12.74564 13.8463,13.46524 11.6482,16.05664 -1.3525,1.5944 -2.0865,1.7315 -5.3323,0.9955 z m 62.1105,-0.9041 c -1.5944,-1.4785 -1.4728,-1.6805 4.6294,-7.6915 8.6379,-8.50874 29.9917,-35.62488 35.2343,-44.74208 1.5002,-2.6089 4.3224,3.8052 3.6731,8.3478 -2.6684,18.6672 -35.3072,51.71748 -43.5368,44.08578 z m -35.908,-109.93428 c -6.083,-0.5658 -11.672,-4.7866 -18.2485,-13.7813 -4.7526,-6.5001 -8.152,-15.0298 -14.8619,-37.2904 -3.3064,-10.9694 -6.3645,-17.3309 -13.1499,-27.3542 -6.1567,-9.0944 -8.316,-13.1249 -10.9483,-20.4357 -3.238,-8.9926 -7.328,-29.3858 -5.5511,-27.678 0.3357,0.3227 2.741,3.0951 5.3451,6.1609 11.1033,13.0721 11.5539,13.2944 13.7754,6.7959 2.4297,-7.1071 7.122,-11.7978 15.9236,-15.918 6.6174,-3.0977 6.8078,-2.4057 3.0949,11.2486 -4.7005,17.2864 -2.0926,21.672 6.0533,10.1791 10.9052,-15.3862 22.7449,-17.7074 42.7713,-8.3854 14.835,6.9055 15.6959,6.6051 13.1911,-4.6041 -3.2202,-14.4111 5.4589,-10.667 10.4211,4.4956 1.4268,4.3596 2.6231,6.7394 4.5466,9.0444 0.6414,0.7684 3.31,-2.7712 5.9917,-7.9472 5.3417,-10.31 13.5249,-15.6932 16.3676,-10.7673 2.7689,4.7978 -4.1126,26.4152 -14.8463,46.6377 -9.2539,17.4348 -11.601,23.6695 -15.5731,41.3662 -6.868,30.5995 -18.4952,40.6338 -44.3026,38.2332 z m 14.0202,-12.2694 c 2.4291,-1.141 3.7294,-2.1949 4.4399,-3.5985 0.5527,-1.0917 2.3619,-3.0767 4.0205,-4.4111 4.6067,-3.7061 9.1318,-23.0252 7.306,-31.1911 -2.94,-13.149 -15.6781,-12.4776 -17.009,0.8965 -1.2325,12.3869 -6.426,12.282 -8.5794,-0.1733 -0.9355,-5.411 -2.3219,-9.1963 -3.368,-9.1961 -10.1251,0 -15.2143,5.9521 -14.5051,16.9599 1.3914,21.5957 14.993,36.6799 27.6951,30.7137 z m 8.8852,-82.9146 c 8.5527,-4.2447 -3.7056,-14.617 -17.2899,-14.6298 -13.7711,-0.013 -20.4006,12.2324 -7.42,13.7055 11.3483,1.2878 23.0922,1.7272 24.7099,0.9243 z m -91.8166,-53.1607 c 0,-3.502 12.5657,-20.7264 18.9371,-25.9581 9.5044,-7.8042 12.8803,-10.9896 15.3795,-14.5121 4.7606,-6.70953 15.9286,-9.58318 21.0471,-5.4156 10.0182,8.157 8.5756,22.998 -3.744,38.5173 -3.4848,4.3898 -3.0883,4.3596 -8.9672,0.6808 -15.7686,-9.8674 -19.437,-9.8328 -33.3912,0.3148 -5.0937,3.7043 -9.2613,6.5721 -9.2613,6.3729 z m 102.501,-4.1331 c -8.3513,-2.831 -13.5798,-29.9483 -7.3977,-38.3673 5.5731,-7.58959 15.3933,-6.69916 19.8101,1.7962 2.2863,4.3976 4.6809,6.4983 11.0847,9.7243 8.2574,4.1598 15.1226,11.1624 21.6928,22.1271 2.9372,4.9016 2.5224,4.915 -4.4756,0.144 -3.0789,-2.0991 -6.2888,-4.2721 -7.1329,-4.829 -3.6182,-2.3869 -10.62,-0.8842 -19.3385,4.1504 -8.3722,4.8346 -11.7764,6.0905 -14.2429,5.2543 z m 108.5672,568.10448 c 21.3035,-32.9542 23.2055,-104.6859 -11.6278,-123.253 -3.3791,-1.5194 -6.8582,-3.2294 -7.7316,-3.8001 -6.2894,-4.1098 -8.7536,2.587 -8.8578,24.0718 -5.7088,19.2002 -7.4478,49.8788 -6.6029,59.9877 -1.7466,5.0867 -2.0057,20.3975 -0.3452,20.3975 1.0969,0 13.2304,-20.161 18.2722,-30.361 2.1737,-4.3976 5.3788,-8.9515 6.3004,-8.9515 3.9374,0 6.566,42.6231 3.0448,49.3746 -2.1063,4.0383 -2.7356,6.9406 -3.2255,14.8749 -0.2192,3.5499 -0.5442,7.5105 -0.7224,8.8013 -0.4532,3.283 5.0816,-2.0815 11.4958,-11.1422 z m -259.7722,8.757 c 0.973,-2.3733 0.7288,-6.6886 -0.7332,-12.9524 -1.0498,-4.4984 -1.3288,-7.56 -1.2539,-13.7622 0.057,-4.7894 -0.414,-12.1152 -1.1807,-18.3343 -3.4674,-28.1263 -0.5574,-29.0316 15.2099,-4.7315 2.7861,4.294 6.2457,9.1917 7.6881,10.8838 l 2.6224,3.0766 1.7667,-11.1151 c 2.1644,-13.6175 2.3,-17.2762 0.6402,-17.2762 -1.0686,0 -1.201,-0.7996 -1.5798,-9.5348 -0.2273,-5.2441 -0.7067,-11.3757 -1.0654,-13.6259 -0.3586,-2.2502 -1.0666,-9.9131 -1.5732,-17.0286 -1.9591,-27.5213 -5.2507,-35.689 -11.9807,-29.7282 -1.4108,1.2496 -4.9974,3.6147 -7.9698,5.2559 -14.4038,7.9521 -17.4411,14.7287 -25.0368,55.8603 -6.2702,33.9538 -4.6808,43.4852 10.3725,62.2045 9.1245,11.3465 12.7206,14.1083 14.0737,10.8081 z m -808.21563,-31.9149 c -9.6564,-17.612 -13.7003,-29.4024 -14.7206,-42.9201 -0.7804,-10.338 0.7826,-8.2549 7.3779,9.833 8.7098,23.887 14.858,34.7578 24.3404,43.0369 l 3.0242,2.6404 -3.2925,-5.5741 c -11.3531,-19.2205 -17.3777,-35.1717 -17.893,-47.3744 -0.3476,-8.2321 1.6069,-5.3792 8.4322,12.3077 5.4759,14.1904 11.5254,24.6966 16.9816,29.4925 2.0027,1.7603 2.0027,1.7603 0.6157,-1.4668 -7.8083,-18.1685 -11.9982,-31.505 -11.9982,-38.1907 0,-5.4383 2.3132,-1.5508 10.4145,17.5025 5.4863,12.9033 9.0402,19.4469 13.9287,25.6469 3.2227,4.0872 3.2527,3.9682 0.6298,-2.4949 -4.8153,-11.8652 -9.0001,-27.1561 -10.0684,-36.7889 -0.8662,-7.8109 4.6873,2.2039 10.7372,19.3628 7.503,21.28 16.2748,34.8026 10.0862,15.549 -3.2233,-10.0282 -6.853,-32.0472 -5.1992,-31.5399 2.8704,0.8806 6.8109,9.5654 11.1716,24.6221 3.1937,11.0272 5.6268,17.7927 6.2057,17.2558 0.9756,-0.9046 -2.2872,-25.0886 -5.2646,-39.0222 -0.8542,-3.9972 -1.42,-7.391 -1.2574,-7.5418 1.3327,-1.2359 8.1873,15.7073 11.5122,28.4556 2.7857,10.6811 3.8621,12.9437 4.9301,10.3628 1.3198,-3.1895 0.3329,-11.3253 -3.7663,-31.05 -3.4739,-16.7151 -3.4753,-16.7224 -3.1165,-16.7224 1.7296,0 8.1867,15.5589 11.4449,27.5774 l 2.4655,9.0947 0.198,-6.1609 c 1.0655,-33.1613 -10.6113,-62.0079 -33.8154,-83.5382 -37.2938,-34.6037 -69.1513,-36.9491 -87.8812,-6.4701 -15.2809,24.8662 -11.7879,62.1111 9.26,98.7353 4.4497,7.7427 12.5444,18.5877 10.5285,14.1059 -18.3531,-40.8049 -22.5641,-59.4261 -17.1186,-75.6999 1.0601,-3.168 1.0601,-3.168 1.8683,2.4061 5.2732,36.3685 13.608,58.5463 27.0678,72.0241 4.6125,4.6186 5.3739,4.6515 2.5025,0.1083 -10.6485,-16.849 -17.1434,-35.2131 -18.6064,-52.609 -1.3012,-15.4733 0.9775,-12.4399 8.9153,11.868 6.9053,21.1459 13.0407,32.8643 22.7948,43.5376 4.4324,4.85 3.7097,2.6703 -3.4353,-10.3611 z m -1.9726,-169.0009 c -0.537,-3.3935 -1.9838,-10.5266 -3.2152,-15.8514 -3.5729,-15.4495 -6.575,-35.8312 -5.0876,-34.5404 0.9179,0.7967 7.6608,20.4958 13.3364,38.9623 10.2699,33.4144 11.4825,26.7494 1.6586,-9.1159 -3.7448,-13.6713 -5.785,-23.8864 -5.7575,-28.8262 0.032,-5.6946 6.7802,7.7198 12.2878,24.4255 3.8744,11.7517 6.0489,17.3093 6.7724,17.3093 1.0362,0 -0.4136,-6.7148 -6.3981,-29.6311 -6.6373,-25.4161 -6.5475,-25.7706 1.973,-7.7894 7.3061,15.4185 9.2621,18.2875 8.5301,12.5115 -2.3259,-18.3521 -36.7479,-87.1603 -48.3226,-96.59504 -2.8701,-2.3394 -3.2559,1.5203 -2.116,21.16914 1.1827,20.3879 -0.1954,26.8217 -9.7432,45.4892 -9.0268,17.6491 -10.6524,24.699 -7.9523,34.4892 2.0394,7.3947 2.9778,8.5397 3.4499,4.2098 0.9199,-8.437 2.2744,-16.9448 2.771,-17.4053 1.2563,-1.1651 5.5835,19.8728 7.3955,35.9562 0.5671,5.0335 1.4114,10.4889 1.8763,12.1229 3.0254,10.6355 3.7947,0.6389 1.6598,-21.5681 -1.7405,-18.1062 -2.2368,-27.4146 -1.4232,-26.6973 1.4651,1.2916 7.6308,22.4784 11.1845,38.4323 1.8977,8.5194 4.6841,16.5382 5.5704,16.0303 1.4504,-0.8314 -0.029,-13.8544 -3.2531,-28.6455 -4.2668,-19.5715 -5.1918,-27.2841 -3.2722,-27.2841 1.1159,0 5.5096,12.9745 10.4317,30.8046 7.9962,28.9657 11.0944,33.845 7.6436,12.0375 z m 461.22603,14.1599 c 17.2108,-3.9987 29.7221,-10.7523 38.9125,-21.0051 10.3841,-11.5845 7.8857,-10.0252 18.6653,-11.6486 5.2199,-0.786 11.7348,-1.9781 14.4773,-2.6487 4.7157,-1.1533 7.3459,-2.089 26.2199,-9.3275 4.2876,-1.6443 15.5205,-5.2737 24.9621,-8.0654 21.262,-6.2866 31.0541,-9.7293 55.1907,-19.4034 10.44,-4.1843 20.5477,-8.1502 22.4616,-8.8131 5.5029,-1.9056 13.0798,-5.2286 13.558,-5.9461 1.0269,-1.541 -5.2671,-0.1529 -42.4398,9.3598 -21.5248,5.5082 -46.9658,11.8302 -56.5357,14.0488 -21.9551,5.0899 -26.497,6.4797 -28.1561,8.6154 -8.2361,10.6024 -24.3823,15.4478 -32.8569,9.8604 -5.0934,-3.3582 -9.82,-1.9075 -16.7655,5.1459 -21.6023,21.9377 -34.1223,27.5788 -61.4205,27.6738 -18.3663,0.064 -28.3613,-4.0035 -50.9342,-20.7274 -19.6402,-14.551 -25.9262,-17.2881 -55.4948,-24.1634 -7.0616,-1.642 -17.609,-4.1566 -23.4385,-5.5879 -10.5826,-2.5983 -53.4977,-14.6483 -62.4803,-17.5438 -5.10346,-1.645 -17.17264,-4.5158 -17.54254,-4.1727 -1.7976,1.6668 13.54714,10.6833 23.04014,13.5383 5.062,1.5224 8.5043,3.0085 12.0796,5.215 5.8445,3.607 43.7621,15.7446 67.8404,21.7161 24.4827,6.072 31.8607,9.376 51.2506,22.9509 28.5927,20.0182 54.2361,26.7769 79.4067,20.9287 z m 284.4732,-0.2335 c 12.5731,-11.6399 12.2693,-35.5413 -0.6766,-53.2199 -11.9296,-16.2908 -36.5277,-31.3225 -41.9463,-25.6331 -1.5663,1.6446 -4.5914,3.2305 -12.8541,6.7393 -18.301,7.7714 -24.2341,12.7002 -32.1363,26.6966 -3.7447,6.6326 -3.9842,9.0633 -0.6964,7.0656 1.1355,-0.69 2.1995,-0.8306 3.9323,-0.52 1.3064,0.2343 5.5869,0.3878 9.512,0.3412 8.0045,-0.095 9.5832,0.1956 19.4378,3.5806 22.5929,7.7603 33.6807,14.9361 40.4425,26.1735 6.4636,10.7419 10.3825,13.0371 14.9851,8.7762 z m -592.60913,-2.7041 c 0,-5.7178 30.69539,-24.3522 49.98509,-30.3449 4.4527,-1.3833 6.4198,-1.6164 16.345,-1.9378 15.8909,-0.5143 16.9686,-3.2809 6.4195,-16.4806 -14.6115,-18.2829 -35.3858,-29.5443 -47.59079,-25.7983 -29.9969,9.2068 -49.4502,42.2092 -38.0533,64.5571 5.1792,10.1559 12.8945,16.142 12.8945,10.0045 z m 303.39053,-24.1997 c 7.5464,-0.8414 17.0835,-4.053 17.0835,-5.7529 0,-1.8152 -33.8492,0.2596 -38.8742,2.3828 -1.8398,0.7773 -2.6621,2.5588 -1.685,3.6506 0.7851,0.8774 14.5672,0.7127 23.4757,-0.2805 z m -13.9199,-25.436 c 4.2248,-0.8892 5.7941,-0.9212 14.3042,-0.291 20.2942,1.503 28.0882,-0.5126 28.0882,-7.2638 0,-2.9061 -1.8495,-3.2505 -7.3176,-1.3628 -2.3026,0.7949 -3.0832,0.7927 -7.445,-0.022 -4.2795,-0.7989 -5.3141,-0.808 -8.5004,-0.074 -3.8794,0.8944 -3.7509,0.9084 -14.8836,-1.6308 -12.2474,-2.7935 -15.3732,-5.8089 -9.3018,-8.9732 4.8156,-2.5099 7.1823,-2.8239 14.5161,-1.9256 15.5102,1.8997 32.5768,1.2411 35.4842,-1.3691 8.2238,-7.3833 5.6878,-10.0489 -10.3616,-10.8917 -29.2596,-1.5364 -48.5025,-8.2695 -48.5025,-16.9706 0,-7.953 5.6198,-7.6434 31.9524,1.7601 23.7507,8.4814 25.9867,2.4777 3.7228,-9.9959 -6.8825,-3.8562 -11.497,-6.9297 -15.0498,-10.0245 l -5.1238,-4.4631 -9.9178,4.2748 c -5.4548,2.3512 -14.4484,6.5389 -19.9857,9.3061 -32.2392,16.1115 -42.8371,16.7639 -75.1285,4.6249 -21.1736,-7.9595 -36.2031,-16.5304 -68.6504,-39.14894 -26.9745,-18.80364 -34.05354,-22.66064 -52.37954,-28.53854 -4.275,-1.3712 -7.6917,-2.7067 -7.5927,-2.9678 0.099,-0.2611 5.8787,-5.3258 12.8435,-11.2547 23.79824,-20.2587 29.42054,-28.6064 31.80364,-47.2213 0.602,-4.7018 1.7176,-4.0827 -15.99466,-8.8774 -11.52908,-3.121 -28.30248,-6.0626 -38.96968,-6.8343 -6.5769,-0.4759 -7.2448,0.075 -13.194,10.8783 -6.85319,12.4451 -6.67949,11.5905 -6.67949,32.8581 0,18.4828 0,18.4828 -2.1195,24.3503 -3.83765,13.5711 -11.24451,46.25014 -3.7866,55.68148 4.5365,5.0871 22.02629,12.6754 29.21499,12.6754 4.53242,1.8435 4.8951,2.7474 7.2095,2.0095 3.3043,-1.0776 2.2592,-2.5367 -5.8422,-8.1566 -15.1677,-10.5219 -19.629,-16.09874 -19.5972,-24.49744 0.027,-7.25254 -0.7931,-7.47834 19.2808,5.3055 36.67844,23.35824 64.96734,36.16234 116.73724,52.83754 62.8035,20.2291 99.7251,32.4404 105.6648,34.9473 6.9294,2.9246 7.3578,2.959 15.5017,1.2449 z m 95.3559,-12.3532 c 3.534,-0.9732 7.7779,-4.6619 7.7779,-6.7604 0,-1.8031 -2.4255,-2.3309 -10.7121,-2.3309 -8.5717,0 -9.8727,-0.5306 -11.9489,-4.8729 -2.3519,-4.9193 -3.8187,-5.0134 -4.3456,-0.279 -1.2399,11.14 7.3617,17.5114 19.2287,14.2432 z m -29.7876,-15.0811 c 3.8986,-5.8498 -5.6597,-20.7179 -11.0796,-17.2348 -6.0944,3.9165 -6.1426,3.5768 1.581,11.146 6.5888,6.457 8.4556,7.6537 9.4986,6.0888 z m 46.962,-6.9721 c 65.8768,-17.7314 115.4956,-40.6405 145.6379,-67.24078 6.5379,-5.7697 6.1901,-5.6632 5.8657,-1.7962 -1.2655,15.08664 -6.6688,23.86728 -20.4125,33.17048 -9.9438,6.7312 -8.6481,9.8288 2.9849,7.1365 12.1881,-2.8209 23.1709,-7.7225 29.8935,-13.3413 6.4184,-5.3645 3.9537,-32.89698 -4.8018,-53.64078 -2.908,-6.89 -3.248,-10.4014 -1.8417,-19.0279 2.2306,-13.6846 -1.8293,-33.0408 -10.1431,-48.358 -3.3717,-6.2121 -2.3338,-6.042 -16.3027,-2.6721 -4.8012,1.1583 -16.4749,3.4408 -25.9416,5.0723 -24.0791,4.1498 -23.8122,4.0882 -26.2247,6.0526 -2.504,2.0388 -2.525,1.8238 1.238,12.7041 6.4361,18.6089 11.8113,25.0415 30.9938,37.0911 20.4935,12.873 21.0895,13.7708 10.2706,15.4671 -17.6309,2.7644 -30.1109,9.4976 -62.2802,33.60174 -20.3324,15.23484 -27.5783,19.26474 -52.1982,29.03064 -6.9599,2.7607 -14.8135,5.9336 -17.4522,7.0508 l -4.7979,2.0314 2.8999,5.487 c 1.5949,3.0178 3.433,7.4012 4.0847,9.7409 0.6515,2.3398 1.3207,4.254 1.4871,4.254 0.1664,0 3.3345,-0.8161 7.0405,-1.8136 z m -27.8996,-9.2618 c 8.3523,-3.9515 5.0311,-7.9831 -4.9178,-5.9694 -9.6344,1.9499 -11.392,3.5609 -6.9498,6.37 2.7137,1.7159 7.7534,1.5459 11.8676,-0.4006 z m -17.689,-16.4906 c 43.3809,-10.0246 84.937,-30.90214 111.4585,-55.99588 l 3.4523,-3.2664 -7.3032,-6.9001 c -12.0821,-11.4149 -14.2221,-14.607 -19.5218,-29.1195 -6.5741,-18.0027 -8.2358,-20.1019 -8.2358,-10.4044 0,7.1165 -1.1865,11.6046 -6.248,23.6343 -6.1236,14.554 -7.6656,20.7519 -11.8151,47.49194 -1.3246,8.5358 -1.0078,8.1529 -7.2832,8.804 -7.0664,0.733 -13.0108,2.19834 -24.4635,6.02974 -13.8652,4.6384 -24.3151,6.7903 -39.8374,8.2036 -3.7803,0.3441 -7.037,-1.3246 -21.3957,-10.9636 -23.7074,-15.91478 -40.8111,-16.20948 -72.4468,-1.2482 -5.7419,2.7156 -14.1777,6.7012 -18.7461,8.8569 l -8.3063,3.9196 -17.9518,-4.2898 c -9.8734,-2.3594 -22.2806,-5.6043 -27.5714,-7.211 -11.0736,-3.36294 -9.3947,-0.8233 -12.8432,-19.42848 -3.5097,-18.9354 -5.781,-26.1962 -13.1474,-42.0299 -2.6274,-5.6476 -5.6742,-12.4528 -6.7708,-15.1228 l -1.9939,-4.8548 -4.4736,8.4254 c -7.298,13.7446 -13.3961,22.1684 -22.9644,31.7225 -6.4819,6.4722 -6.3556,6.8988 4.1117,13.8881 2.088,1.3941 8.6367,5.8837 14.5526,9.9766 35.0319,24.23688 57.1586,34.36018 87.1445,39.86958 4.6025,0.8457 9.4616,-1.0062 27.6555,-10.5399 18.7777,-9.8395 26.1449,-12.1708 40.3099,-12.7561 9.8137,-0.4054 7.8793,-1.178 23.6343,9.4383 26.0084,17.5251 25.6739,17.412 41.0001,13.8703 z M 599.77641,959.78812 c 9.89189,-6.6451 10.58832,-18.5356 1.35849,-23.1942 -11.24344,-5.6748 -25.90643,-0.6682 -25.86064,8.8302 0.052,10.7852 15.95305,20.107 24.50215,14.364 z m -9.96343,-4.25 c -7.56347,-1.9932 -10.77737,-9.3833 -6.00526,-13.8087 3.00644,-2.788 9.89771,-2.7582 13.88204,0.06 8.41037,5.9489 2.39153,16.4546 -7.87678,13.7487 z m 522.48322,-13.2805 c 0.5333,-1.4852 -4.9734,-5.2254 -14.4495,-9.8142 -13.1293,-6.3579 -13.7909,-7.0693 -23.2288,-24.979 -9.3934,-17.8252 -10,-18.1405 -10.6878,-5.5559 -0.4268,7.8093 1.7327,11.4976 13.6751,23.3563 10.8317,10.7558 33.0268,21.6277 34.691,16.9928 z m -469.73663,-25.196 c 0.89225,-2.5769 1.50276,-4.7425 2.59955,-9.2214 0.40779,-1.6653 0.50492,-1.5672 2.25302,2.2753 4.42183,9.7194 6.9224,8.1228 8.59424,-5.4875 1.2117,-9.8643 2.16059,-11.737 3.07665,-6.0722 1.3474,8.3324 3.88919,10.5961 5.59149,4.9798 2.93072,-9.669 0.72996,-19.6828 -5.56894,-25.3396 -3.37341,-3.0295 -4.60699,1.8559 -2.88733,11.4349 0.72519,4.0396 0.59681,3.9808 -3.40046,-1.5559 l -3.52888,-4.8879 v 5.6538 c 0,10.4343 -3.257,17.0489 -3.9993,8.1222 -0.52806,-6.3501 -1.2534,-7.4484 -2.23444,-3.3831 -0.47037,1.9491 -0.59795,4.7533 -0.33543,7.3727 0.54663,5.4542 -1.0516,5.0032 -6.61305,-1.8662 -1.65835,-2.0483 -1.66351,-1.9999 -0.73325,6.8699 1.24883,11.9073 4.93564,17.6047 7.18613,11.1052 z m 32.6171,-21.8565 c 0.028,-4.8244 -0.3568,-7.6884 -1.7717,-13.202 -1.5824,-6.166 -1.8923,-8.1706 -1.1265,-7.2855 0.1163,0.1345 1.9658,2.6209 4.1099,5.5253 7.9434,10.7601 7.8357,11.1733 2.6594,-10.1976 -1.6819,-6.9439 -1.5509,-7.0028 2.364,-1.0618 4.7917,7.2716 5.4605,7.4639 3.6057,1.0367 -0.846,-2.9314 -2.5003,-7.7053 -3.6763,-10.6088 -2.6156,-6.4574 -2.6797,-6.4552 4.2384,-0.1449 3.2318,2.9478 5.4899,4.6343 5.3029,3.9605 -2.1206,-7.6407 -4.5246,-14.8978 -5.5561,-16.7729 -1.2082,-2.1962 -1.2162,-2.3397 -0.1497,-2.6948 7.2104,-2.4011 7.0534,-1.454 1.8364,-11.0788 -9.1044,-16.7961 -23.67891,-33.428 -26.77612,-30.5558 -0.78767,0.7304 3.31956,10.7573 8.12632,19.8386 2.733,5.1634 4.9691,9.4853 4.9691,9.6042 0,0.1189 -1.1747,-0.1682 -2.6104,-0.6379 -7.32242,-2.3958 -6.6784,1.3746 1.8383,10.7625 3.5525,3.916 3.4284,3.9978 -4.51138,2.9716 l -6.56457,-0.8484 4.34221,3.901 c 7.26944,6.5306 3.23614,10.7617 -6.84043,7.1758 -0.5355,-0.1905 0.35554,0.9218 1.98011,2.4719 7.89716,7.5353 7.09225,13.3006 -1.32264,9.4734 -4.22858,-1.9232 -4.33558,-2.4609 1.60513,8.0662 5.66178,10.0327 10.34497,19.9142 11.90637,25.1223 1.3963,4.6572 1.9755,3.2762 2.0216,-4.8208 z m 692.12093,-7.021 c 8.0073,-2.9434 21.659,-6.6167 42.781,-11.5112 9.0805,-2.1042 19.3572,-4.6147 22.8372,-5.5789 18.9136,-5.2406 18.0066,-4.793 15.2801,-7.5415 -0.8179,-0.8244 -1.9796,-2.6872 -2.5815,-4.1394 -2.5439,-6.1374 2.7184,-6.9253 -41.1711,6.1645 -32.8813,9.8067 -48.3895,17.5847 -48.401,24.275 0,1.8805 2.6844,1.4821 11.2553,-1.6685 z m -315.9595,0.049 c 1.5429,-2.3152 -14.2091,-9.9773 -35.703,-17.3665 -28.04394,-9.641 -37.44394,-15.6462 -32.89154,-21.0132 3.0118,-3.5506 7.088,-3.4411 22.13534,0.5946 23.9821,6.432 25.8602,4.1158 7.2632,-8.9573 -15.95514,-11.2161 -16.10534,-8.4012 1.3264,-24.8569 8.2576,-7.7953 17.0042,-15.8095 19.4367,-17.8095 l 4.4229,-3.6363 6.0789,5.916 c 8.0539,7.838 10.7029,12.1302 15.2946,24.7818 5.079,13.9944 7.9753,19.186 10.0424,18.0013 2.5602,-1.4673 -3.6914,-36.4642 -8.8828,-49.7269 -5.4171,-13.839 -6.8396,-17.7264 -6.5763,-17.9706 0.399,-0.37 5.7318,2.1583 16.4481,7.7982 19.8258,10.434 30.9814,5.5218 41.8088,-18.4098 5.4847,-12.1232 4.5333,-11.6182 8.7767,-4.6587 20.613,33.8069 45.3065,48.2925 82.2863,48.2705 37.8981,-0.023 68.6116,-16.8637 85.0938,-46.6592 6.4999,-11.7503 6.7784,-11.7489 12.4131,0.062 14.4305,30.2487 26.2445,34.2032 52.7422,17.6545 3.1444,-1.9637 5.717,-3.3444 5.717,-3.0682 0,0.2762 -1.2383,3.2476 -2.7519,6.603 -10.9013,24.1679 -15.1608,39.6522 -13.6425,49.5943 1.4558,9.5331 4.8735,6.5148 9.0795,-8.0185 3.4001,-11.7481 7.4057,-18.3199 17.0454,-27.9656 l 3.6368,-3.6391 3.7274,4.0161 c 2.05,2.2088 8.2809,7.8857 13.8463,12.6152 22.2236,18.8857 22.2361,19.1474 1.5967,33.4914 -16.39,11.3908 -15.9275,12.1925 4.6318,8.0283 26.927,-5.4539 36.8522,-6.0514 44.5245,-2.6803 4.1853,1.839 4.1853,1.839 2.7366,-0.5868 -1.7169,-2.8746 -2.9452,-7.2314 -4.4058,-15.6277 -6.29,-36.1555 -24.6528,-55.3355 -73.0648,-76.316 -6.09,-2.6392 -27.9426,-12.5344 -48.5615,-21.9892 l -37.4888,-17.1907 -0.01,3.3266 c -0.08,40.8975 -20.0147,66.6903 -58.3016,75.4352 -49.8163,11.3782 -90.3376,-16.4254 -92.265,-63.3073 -0.4886,-11.8851 -0.8237,-14.3755 -1.9342,-14.3755 -0.7501,0 -18.9269,7.063 -27.3083,10.6112 -13.1822,5.5807 -27.0212,12.2417 -42.773,20.5877 -8.5973,4.5552 -22.5073,11.3827 -30.9111,15.1721 -37.18704,16.7686 -43.96704,25.3306 -53.09734,67.0534 -4.2623,19.477 -6.8132,27.0258 -11.3607,33.6181 -1.2099,1.754 -2.1999,3.2853 -2.1999,3.4028 0,0.1175 1.9219,0.393 4.2709,0.6123 13.0548,1.2188 39.10494,6.174 42.72294,8.1267 2.1368,1.1532 3.8204,1.4991 8.3694,1.7196 5.3404,0.2589 6.2893,0.5182 15.2625,4.1721 11.6315,4.7363 20.0742,6.5381 21.3894,4.5647 z m -438.70749,-2.738 c 21.39436,-3.3542 27.80733,-9.8637 26.9983,-27.4046 -0.72853,-15.7958 -4.83506,-15.2941 -5.54011,0.6769 -0.42635,9.6579 -0.84703,10.846 -5.10306,14.4117 -11.10914,9.3073 -49.21208,13.8727 -42.5882,5.1029 1.43469,-1.8995 0.73474,-2.1802 -3.44193,-1.3802 -15.36885,2.9438 -20.7728,-1.0998 -22.19611,-16.6084 -1.16048,-12.6448 -4.10038,-17.2244 -6.68551,-10.4142 -9.72308,25.6143 17.344,42.0773 58.55662,35.6159 z m -92.25571,-4.2253 c 2.9001,-3.0072 11.27873,-19.7352 12.19637,-24.3502 0.52442,-2.6374 -0.29674,-2.8415 -4.13237,-1.0269 -6.09315,2.8827 -5.59483,-2.4582 0.92847,-9.9511 4.51012,-5.1805 4.45911,-5.1939 -4.25027,-1.1213 -2.00099,0.9357 -3.63815,1.5821 -3.63815,1.4365 0,-0.1456 1.42363,-2.9645 3.16361,-6.264 4.13384,-7.8391 4.15118,-8.7816 0.15818,-8.5926 -4.20625,0.1991 -3.96618,-1.0552 2.43567,-12.7265 9.66477,-17.6199 10.55149,-22.2829 2.9923,-15.7354 -6.71966,5.8202 -10.41797,11.2528 -18.07463,26.5505 -6.36636,12.7198 -6.45626,13.1408 -2.85791,13.3823 3.88992,0.2611 4.26324,1.264 2.94166,7.9025 -1.3343,6.7025 -1.77082,10.3999 -1.2278,10.3999 0.22814,0 2.13627,-1.0841 4.2403,-2.4091 4.528,-2.8515 4.55271,-3.2301 -0.49916,7.6471 l -3.38657,7.2917 5.92103,-5.3847 c 3.25657,-2.9616 6.08121,-5.3847 6.27698,-5.3847 0.37029,0 -1.86194,8.1211 -4.00864,14.5839 -1.68927,5.0857 -1.4629,6.1203 0.82093,3.7521 z m 67.51471,-25.6423 c 1.39174,-1.5551 0.18256,-2.995 -3.39281,-4.0401 -9.36118,-2.7365 -5.82384,-8.7393 5.36146,-9.0983 19.0794,-0.6124 32.79078,6.2196 20.54843,10.2388 -4.28607,1.4071 -5.00204,2.3042 -2.53355,3.1746 8.99478,3.1713 11.47871,-12.521 2.9426,-18.5899 -14.82934,-10.5432 -38.76046,-1.0277 -32.98234,13.1145 1.74318,4.2665 7.99749,7.5008 10.05621,5.2004 z m 18.88034,-28.0163 c 1.27966,-1.1867 0.71555,-14.2337 -0.86849,-20.0865 -1.25457,-4.6354 6.42009,1.6398 14.70383,12.0227 3.04995,3.8228 5.63396,6.8684 5.74225,6.768 0.52673,-0.4885 -4.1291,-10.6153 -9.60124,-20.8834 -15.97169,-29.9701 -12.74923,-42.3338 12.92726,-49.5984 1.46733,-0.4152 1.41429,-0.2763 -0.73869,1.9336 -2.55744,2.6251 -4.00614,4.8074 -3.23714,4.8763 0.27324,0.024 2.42029,0.01 4.7712,-0.04 5.00808,-0.098 5.80776,0.6877 3.95134,3.8844 -1.4564,2.5079 -0.67975,3.4494 5.36143,6.4993 8.2636,4.172 10.70357,6.3991 19.15309,17.482 7.69015,10.0869 10.74978,13.8466 11.04538,13.5724 0.5971,-0.5537 -4.98574,-14.7583 -8.39237,-21.3531 -6.68419,-12.9397 -6.67002,-12.9816 1.84057,-5.4442 l 4.33226,3.8369 -2.01484,-3.7521 c -1.10817,-2.0636 -3.55248,-5.9624 -5.43181,-8.6639 -5.81311,-8.3564 -6.27803,-9.431 -5.08445,-11.7521 1.71976,-3.3444 -2.36682,-9.3449 -11.24328,-16.5091 -15.58241,-12.5765 -31.31748,-14.4409 -43.25585,-5.1253 -2.43901,1.9032 -2.81288,1.8856 -6.22912,-0.2941 -10.39818,-6.6344 -19.61128,-7.5068 -30.00244,-2.8412 -13.63357,6.1216 -30.21647,21.3161 -26.05815,23.8765 2.63637,1.6233 1.93492,3.3605 -4.31465,10.6858 -6.86932,8.0517 -10.45448,15.8758 -5.58591,12.1903 7.8993,-5.9796 8.24583,-5.6345 3.06814,3.0556 -4.62142,7.7566 -6.96571,13.2818 -6.96571,16.4176 0,6.3525 4.86723,2.2162 12.05774,-10.247 6.33423,-10.979 7.84959,-12.4143 16.78995,-15.9032 6.98133,-2.7243 8.64202,-4.0408 6.58477,-5.2199 -2.41374,-1.3834 -0.58112,-3.3564 2.75821,-2.9695 5.3675,0.6219 6.93739,0.051 5.74441,-2.0881 -2.53807,-4.5515 8.84464,-2.1685 13.76456,2.8816 7.07734,7.2646 5.73462,19.8174 -4.05744,37.9321 -6.05011,11.1924 -11.40162,23.2126 -10.33443,23.2126 0.11795,0 2.92465,-3.131 6.23714,-6.9579 9.7021,-11.2086 13.04352,-14.3054 13.06864,-12.1116 0.0261,2.275 -2.26679,16.4495 -3.0554,18.8887 -0.76519,2.3667 -0.87845,2.3436 11.97114,2.4479 6.91103,0.056 10.06477,-0.1296 10.5981,-0.6242 z m 28.30661,-22.8104 c 0.4304,-1.1539 2.09591,-3.877 3.70111,-6.0513 4.72466,-6.3997 3.88535,-7.4917 -3.59517,-4.6777 -2.8554,1.0741 -6.11699,2.1187 -7.24798,2.3212 -2.48378,0.4448 -2.51493,0.7441 -0.40766,3.9165 5.05847,7.6154 6.14365,8.261 7.5497,4.4913 z m -70.9588,-1.2758 c 3.84473,-6.1255 2.38966,-7.6428 -10.80151,-11.2632 -1.68871,-0.4635 -1.1379,2.0715 1.52301,7.0092 3.96907,7.3653 6.57559,8.5604 9.2785,4.254 z m 634.80044,-23.263 c 1.6794,-3.124 1.9016,-3.9896 1.3536,-5.2729 -0.3606,-0.8443 -0.7039,-6.4199 -0.7631,-12.3902 -0.1398,-14.1156 -0.9141,-16.5189 -7.6007,-23.5909 -9.8412,-10.4084 -35.2628,-32.4054 -40.1702,-34.75877 -5.5404,-2.65686 -9.1812,26.63547 -5.1376,41.33387 5.3252,19.3567 22.0792,33.6732 44.2993,37.8543 5.67,1.0669 5.7565,1.0327 8.0187,-3.1754 z m 4.4873,-63.7232 c 1.0891,-5.5863 1.2668,-22.76093 0.2681,-25.91738 -0.8769,-2.77152 -3.388,-3.65279 -10.749,-3.77215 -4.0817,-0.0662 -8.2614,-0.94868 -5.0039,-1.05653 14.2056,-0.47029 20.1964,-5.08357 15.8852,-12.23253 -3.139,-5.20525 -3.134,-7.37503 0.022,-9.83234 2.4283,-1.8905 2.4283,-1.8905 2.025,-37.61577 -0.5683,-50.34376 0.018,-46.20524 -6.9677,-49.22944 -14.0699,-6.09148 -35.6892,-10.95087 -37.7878,-8.4936 -8.3563,9.78429 -18.6381,41.72331 -19.9803,62.06576 -0.4684,7.10052 -1.1571,6.83494 -9.1837,-3.5418 -5.3229,-6.88141 -5.3762,-6.91792 -6.0145,-4.12437 -3.0666,13.41981 4.4356,27.30383 15.7943,29.2303 4.1865,0.71005 5.6646,3.55892 7.4273,14.31524 3.6291,22.14444 23.2895,45.28761 45.1827,53.18631 6.686,2.4122 8.1225,1.9407 9.0822,-2.9817 z m -30.9082,-88.23726 c -17.5425,-6.13485 -18.953,-8.78868 -6.8276,-12.84569 16.7543,-5.60578 36.5458,1.43602 28.3538,10.08829 -5.5504,5.86232 -10.7451,6.52772 -21.5262,2.7574 z m 616.8336,55.67245 c 5.5177,-10.16695 6.4097,-18.26379 2.9066,-26.38278 -1.7361,-4.02384 -7.574,0.0961 -9.1156,6.43317 -0.793,3.25987 -3.7666,9.59611 -6.4023,13.6422 -1.4335,2.2005 -1.4335,2.2005 0.035,6.45428 4.4272,12.82006 5.5459,12.80699 12.5759,-0.14687 z m -183.6406,7.11584 c 6.3107,-4.60335 6.0938,-3.87272 3.7305,-12.57249 -4.1187,-15.16069 -9.7951,-24.70003 -12.3955,-20.83058 -1.0553,1.57032 -3.0816,11.00936 -3.0816,14.35484 0,10.27924 7.3744,22.23753 11.7466,19.04823 z m 39.3957,-34.54655 c 9.1046,-5.11359 17.3436,-13.07873 15.5921,-15.0736 -3.6349,-4.14018 -6.4459,-10.39285 -10.3295,-22.97746 -7.1177,-23.0646 -23.3334,-50.24046 -31.5662,-52.90194 -11.044,-3.57025 -24.476,56.47126 -18.0831,80.8315 3.1745,12.09601 9.1808,13.62087 8.0892,2.05364 -0.2741,-2.90443 -0.4897,-6.20492 -0.4792,-7.33442 0.4074,-43.73732 4.7844,-64.64316 12.7233,-60.77188 8.2165,4.00656 16.8703,21.08406 22.5187,44.4386 2.5735,10.64064 2.3502,13.28485 -1.7644,20.89298 -6.7829,12.54231 -5.7532,15.92688 3.2991,10.84258 z m 136.5325,-2.58652 c 6.452,-6.62579 9.5289,-17.4785 7.4906,-26.41941 -0.5381,-2.36078 -1.8267,-9.83714 -2.8635,-16.61415 -3.4157,-22.32852 -7.4885,-33.92238 -14.8657,-42.31889 -3.327,-3.7866 -3.8956,-3.68392 -9.7087,1.75309 -13.6979,12.81162 -19.2186,23.51016 -28.2142,54.67695 -2.2758,7.88496 -4.4165,15.01584 -4.757,15.84642 -1.2331,3.00766 -0.772,4.15464 2.7027,6.72337 12.16,8.98949 16.1973,6.81626 12.7566,-6.8668 -1.0257,-4.0792 -0.9987,-5.77442 0.2874,-18.07907 1.7384,-16.63255 8.7371,-30.64996 19.9236,-39.90425 4.6491,-3.84611 4.2483,-3.79514 5.682,-0.72245 6.9036,14.79509 7.8917,19.24439 8.6309,38.86644 0.3161,8.39057 0.876,16.17798 1.2442,17.30535 1.0623,3.25237 0.8149,4.74309 -1.545,9.30961 -3.828,7.40734 -1.7437,11.55776 3.2361,6.44379 z M 1142.4533,575.1612 c 0.897,-1.75842 3.7933,-8.68945 6.4361,-15.40228 8.0999,-20.57386 10.2588,-24.06197 17.3745,-28.07043 7.8844,-4.44159 9.7315,-3.4119 5.9701,3.32829 -1.7952,3.21706 -2.2145,4.62213 -2.2145,7.42144 0,5.30531 0.9203,5.242 7.2763,-0.5006 4.3814,-3.95854 9.6769,-6.43115 20.0417,-9.35813 10.1225,-2.85859 11.5106,-1.30462 4.971,5.56516 -3.5947,3.77612 -4.9624,5.90152 -4.2331,6.57786 0.1823,0.1691 4.8351,-0.90166 10.3395,-2.37945 5.5044,-1.47778 14.2789,-3.63377 19.4988,-4.79107 35.0312,-7.76665 44.4522,-14.64186 20.0636,-14.64186 -14.9446,0 -14.919,0.01 -14.3278,-5.55368 0.6106,-5.74698 -0.7157,-6.19161 -13.2603,-4.4453 -3.3817,0.47078 -12.1834,1.13671 -19.5592,1.47983 -16.7294,0.77825 -24.5364,1.57505 -28.596,2.91853 -1.7399,0.57584 -5.595,1.83798 -8.5666,2.80475 -16.4585,5.35441 -21.8098,13.17649 -26.2038,38.30263 -2.6465,15.13342 0.4723,25.5995 4.9897,16.74431 z" style="fill:#000000;fill-opacity:1;fill-rule:nonzero;stroke:#000000;stroke-opacity:1" id="path1849"></path>
      </g>
    </g>
    <text style="font-style:normal;font-variant:normal;font-weight:bold;font-stretch:normal;font-size:96px;font-family:&#39;Mongolian Baiti&#39;;-inkscape-font-specification:&#39;Mongolian Baiti Bold&#39;;white-space:pre;shape-inside:url(#rect2609);display:inline;fill:#000000" id="text2607" xml:space="preserve"></text>
  </g>
</svg>