<?xml version="1.0" encoding="UTF-8" standalone="no"?>
<svg
   version="1.1"
   id="svg5"
   xml:space="preserve"
   sodipodi:docname="RTL Nord.svg"
   inkscape:version="1.3 (0e150ed6c4, 2023-07-21)"
   viewBox="0 0 617.59068 266.39059"
   width="617.5907"
   height="266.39059"
   xmlns:inkscape="http://www.inkscape.org/namespaces/inkscape"
   xmlns:sodipodi="http://sodipodi.sourceforge.net/DTD/sodipodi-0.dtd"
   xmlns="http://www.w3.org/2000/svg"
   xmlns:svg="http://www.w3.org/2000/svg"><sodipodi:namedview
     id="namedview7"
     pagecolor="#505050"
     bordercolor="#eeeeee"
     borderopacity="1"
     inkscape:showpageshadow="0"
     inkscape:pageopacity="0"
     inkscape:pagecheckerboard="0"
     inkscape:deskcolor="#505050"
     inkscape:document-units="mm"
     showgrid="false"
     inkscape:zoom="0.95752511"
     inkscape:cx="419.31015"
     inkscape:cy="382.75759"
     inkscape:window-width="2560"
     inkscape:window-height="1490"
     inkscape:window-x="-12"
     inkscape:window-y="-12"
     inkscape:window-maximized="1"
     inkscape:current-layer="g161" /><defs
     id="defs2" /><g
     inkscape:label="Ebene 1"
     inkscape:groupmode="layer"
     id="layer1"
     transform="translate(-688.67908,540.48432)"><g
       id="g161"
       transform="matrix(0.26458333,0,0,0.26458333,50.839357,165.28118)"><path
         fill="#0036f2"
         d="m 2410.7329,-2667.4602 h 498.3327 v 280.2474 h -498.3327 z"
         id="path134"
         style="stroke-width:10.1538"
         data-darkreader-inline-fill="" /><path
         fill="#ffffff"
         d="m 2552.2781,-2603.054 h 132.7926 c 40.4328,0 62.9339,18.1754 62.9339,48.6675 0,26.1564 -16.8758,43.7024 -45.6316,47.8147 l 65.1169,54.9529 h -49.9572 l -61.2279,-53.0237 h -69.3917 v 52.983 h -34.5943 v -151.3944 z m 128.264,70.0719 c 21.4044,0 31.7817,-6.9249 31.7817,-20.9881 0,-14.0631 -10.3773,-20.7748 -31.7817,-20.7748 h -93.6391 v 41.7324 h 93.6188 v 0.031 z"
         id="path136"
         style="stroke-width:10.1538"
         data-darkreader-inline-fill="" /><path
         fill="#00acf2"
         d="m 2958.8501,-2667.4602 h 498.3327 v 280.2474 h -498.3327 z"
         id="path138"
         style="stroke-width:10.1538"
         data-darkreader-inline-fill="" /><path
         fill="#ffffff"
         d="m 3190.6837,-2573.2017 h -87.5772 v -29.8523 h 209.7895 v 29.8523 h -87.5773 v 121.5828 h -34.6247 z"
         id="path140"
         style="stroke-width:10.1538"
         data-darkreader-inline-fill="" /><path
         fill="#fa002e"
         d="m 3506.937,-2667.4602 h 498.3326 v 280.2474 H 3506.937 Z"
         id="path142"
         style="stroke-width:10.1538"
         data-darkreader-inline-fill="" /><path
         fill="#ffffff"
         d="m 3661.8041,-2603.054 h 34.6045 v 121.5826 h 153.9938 v 29.8525 h -188.6085 z"
         id="path144"
         style="stroke-width:10.1538"
         data-darkreader-inline-fill="" /><path
         style="font-weight:bold;font-size:819.724px;font-family:'RTL United Text';-inkscape-font-specification:'RTL United Text Bold';letter-spacing:9.86457px;word-spacing:0px;baseline-shift:baseline;stroke-width:22.6825;stroke-linejoin:round;paint-order:markers stroke fill"
         d="m 2468.008,-1700.1985 h -100.8261 v -573.8068 h 117.2206 l 252.4749,415.6001 h 3.2789 v -415.6001 h 100.8261 v 573.8068 h -117.2205 l -252.475,-413.1409 h -3.2789 z m 759.9127,9.017 q -81.9724,0 -145.9109,-36.8876 -63.1187,-37.7073 -98.3668,-104.9247 -34.4284,-67.2173 -34.4284,-154.1081 0,-87.7105 34.4284,-154.9278 35.2481,-67.2174 98.3668,-104.105 63.9385,-36.8875 145.9109,-36.8875 81.9724,0 145.0912,37.7073 63.9384,36.8875 98.3668,104.1049 35.2482,67.2174 35.2482,154.1081 0,86.8908 -35.2482,154.1081 -34.4284,67.2174 -98.3668,104.9247 -63.1188,36.8876 -145.0912,36.8876 z m 0,-91.8091 q 81.9724,0 128.6967,-54.9215 47.544,-54.9215 47.544,-149.1898 0,-95.088 -47.544,-149.1898 -46.7243,-54.9215 -128.6967,-54.9215 -81.9724,0 -129.5164,54.9215 -46.7242,54.1018 -46.7242,149.1898 0,94.2683 46.7242,149.1898 47.544,54.9215 129.5164,54.9215 z m 849.2622,74.5949 v 8.1972 h -113.9416 l -136.8939,-214.7677 h -110.6628 v 214.7677 h -100.826 v -573.8068 h 245.9172 q 56.5609,0 99.1866,22.9523 42.6256,22.9523 65.5779,63.1187 23.772,40.1665 23.772,90.9894 0,62.299 -31.9693,106.5641 -31.1495,44.2651 -86.071,63.1188 z m -361.4983,-475.4399 v 178.6998 h 139.3531 q 43.4454,0 67.2174,-23.772 24.5917,-24.5917 24.5917,-68.0371 0,-40.1665 -24.5917,-63.1187 -24.5918,-23.772 -67.2174,-23.772 z m 455.7942,483.6371 v -573.8068 h 211.4888 q 82.7921,0 145.0911,36.0679 62.2991,35.2481 96.7275,100.0063 34.4284,64.7582 34.4284,150.8292 0,84.4316 -35.2482,150.0095 -34.4284,64.7582 -97.5471,100.8261 -62.299,36.0678 -143.4517,36.0678 z m 204.1113,-90.1696 q 86.8907,0 133.615,-51.6426 47.544,-51.6427 47.544,-145.0912 0,-94.2682 -47.544,-145.0911 -46.7243,-51.6426 -133.615,-51.6426 h -103.2852 v 393.4675 z"
         id="text1"
         transform="scale(1.0183978,0.98193457)"
         aria-label="NORD" /></g></g></svg>
